<svg width="25" height="25" viewBox="0 0 25 25" fill="none" xmlns="http://www.w3.org/2000/svg">
<path fill-rule="evenodd" clip-rule="evenodd" d="M6.25001 12.5C6.25001 12.7072 6.33232 12.9059 6.47883 13.0524C6.62534 13.199 6.82406 13.2813 7.03126 13.2813L16.0828 13.2813L12.7281 16.6344C12.6555 16.707 12.5979 16.7933 12.5586 16.8882C12.5193 16.9831 12.499 17.0848 12.499 17.1875C12.499 17.2902 12.5193 17.392 12.5586 17.4869C12.5979 17.5818 12.6555 17.668 12.7281 17.7406C12.8008 17.8133 12.887 17.8709 12.9819 17.9102C13.0768 17.9495 13.1785 17.9697 13.2813 17.9697C13.384 17.9697 13.4857 17.9495 13.5806 17.9102C13.6755 17.8709 13.7617 17.8133 13.8344 17.7406L18.5219 13.0531C18.5946 12.9806 18.6524 12.8944 18.6917 12.7994C18.7311 12.7045 18.7514 12.6028 18.7514 12.5C18.7514 12.3972 18.7311 12.2955 18.6917 12.2006C18.6524 12.1057 18.5946 12.0195 18.5219 11.9469L13.8344 7.25939C13.6877 7.11269 13.4887 7.03027 13.2813 7.03027C13.0738 7.03027 12.8748 7.11269 12.7281 7.25939C12.5814 7.40608 12.499 7.60505 12.499 7.81251C12.499 8.01997 12.5814 8.21894 12.7281 8.36564L16.0828 11.7188L7.03126 11.7188C6.82406 11.7188 6.62534 11.8011 6.47883 11.9476C6.33232 12.0941 6.25001 12.2928 6.25001 12.5Z" fill="white"/>
</svg>
