<svg width="100" height="100" viewBox="0 0 100 100" fill="none" xmlns="http://www.w3.org/2000/svg">
<path d="M93.8381 7.82812H6.16191C2.76406 7.82812 0 10.5922 0 13.9898V73.4846C0 76.8822 2.76406 79.6463 6.16191 79.6463H35.8154L34.616 89.2418H29.6465C28.8373 89.2418 28.1816 89.8977 28.1816 90.7066C28.1816 91.5156 28.8373 92.1715 29.6465 92.1715H70.3535C71.1627 92.1715 71.8184 91.5156 71.8184 90.7066C71.8184 89.8977 71.1627 89.2418 70.3535 89.2418H65.3842L64.1846 79.6463H93.8381C97.2357 79.6463 100 76.8822 100 73.4846V13.9898C100 10.5922 97.2359 7.82812 93.8381 7.82812ZM37.5686 89.2418L38.7682 79.6463H44.1594L44.6883 81.7615C45.2988 84.2035 47.4832 85.9088 50.0002 85.9088C52.5172 85.9088 54.7016 84.2035 55.3121 81.7615L55.841 79.6463H61.2322L62.4314 89.2418H37.5686ZM47.1791 79.6463H52.8207L52.4695 81.051C52.1857 82.1863 51.1703 82.9791 49.9998 82.9791C48.8293 82.9791 47.8141 82.1861 47.5301 81.051L47.1791 79.6463ZM97.0703 73.4846C97.0703 75.2668 95.6203 76.7166 93.8381 76.7166H6.16191C4.37969 76.7166 2.92969 75.2668 2.92969 73.4846V13.9898C2.92969 12.2076 4.37969 10.7578 6.16191 10.7578H93.8381C95.6203 10.7578 97.0703 12.2076 97.0703 13.9898V73.4846V73.4846Z" fill="#E67E22"/>
<path d="M82.8785 14.0908H7.72729C6.91812 14.0908 6.26245 14.7465 6.26245 15.5557V71.9189C6.26245 72.7281 6.91812 73.3838 7.72729 73.3838H10.8587C11.6679 73.3838 12.3236 72.7281 12.3236 71.9189C12.3238 71.11 11.6679 70.4541 10.8589 70.4541H9.19233V17.0205H82.8785C83.6876 17.0205 84.3433 16.3646 84.3433 15.5557C84.3433 14.7465 83.6876 14.0908 82.8785 14.0908Z" fill="#E67E22"/>
<path d="M92.2725 14.0908H89.1411C88.3319 14.0908 87.6762 14.7465 87.6762 15.5557C87.6762 16.3646 88.3319 17.0205 89.1411 17.0205H90.8077V70.4541H17.1213C16.3122 70.4541 15.6565 71.11 15.6565 71.9189C15.6565 72.7281 16.3122 73.3838 17.1213 73.3838H92.2723C93.0815 73.3838 93.7372 72.7281 93.7372 71.9189V15.5557C93.7374 14.7465 93.0815 14.0908 92.2725 14.0908Z" fill="#E67E22"/>
<path d="M69.9415 30.3092C69.6782 29.9727 69.2811 29.768 68.8546 29.7486L34.4104 28.1828C34.3835 28.1816 34.3571 28.1811 34.3299 28.1814C34.126 27.5121 33.6952 26.9316 33.112 26.5426L28.8938 23.7305C28.2208 23.2818 27.3112 23.4637 26.8626 24.1369C26.4139 24.8102 26.5958 25.7195 27.2688 26.1682L31.4868 28.9799C31.5067 28.9932 31.5214 29.0133 31.528 29.0363L36.9008 47.8412C37.0684 48.4275 37.3442 48.9545 37.6983 49.4096L35.7325 53.3412C35.2592 54.2875 35.3089 55.3897 35.8651 56.2897C36.0669 56.616 36.3227 56.8939 36.6167 57.1166C36.2319 57.7883 36.0106 58.5652 36.0106 59.3934C36.0106 61.9277 38.0725 63.9895 40.6067 63.9895C43.1409 63.9895 45.2028 61.9275 45.2028 59.3934C45.2028 58.8057 45.0907 58.2439 44.8887 57.727H58.2436C58.0417 58.2439 57.9296 58.8057 57.9296 59.3934C57.9296 61.9277 59.9915 63.9895 62.5257 63.9895C65.0598 63.9895 67.1217 61.9275 67.1217 59.3934C67.1217 58.6582 66.9473 57.9635 66.6391 57.3467C66.9348 57.0787 67.1217 56.6928 67.1217 56.2621C67.1217 55.4531 66.4661 54.7973 65.6569 54.7973H38.4424C38.4215 54.7973 38.3862 54.7973 38.3567 54.7494C38.3272 54.7018 38.343 54.6703 38.3524 54.6514L40.1633 51.0297C40.5319 51.1244 40.9159 51.1756 41.3089 51.1756C41.4899 51.1756 41.6727 51.1648 41.8567 51.1434L62.4399 48.7219C65.0983 48.409 67.2372 46.4355 67.7622 43.8105L70.2243 31.4992C70.3081 31.0803 70.2048 30.6457 69.9415 30.3092ZM62.5253 57.7273C63.4442 57.7273 64.1917 58.475 64.1917 59.3937C64.1917 60.3127 63.4442 61.0602 62.5253 61.0602C61.6063 61.0602 60.8589 60.3127 60.8589 59.3937C60.8589 58.4748 61.6063 57.7273 62.5253 57.7273ZM40.6063 57.7273C41.5253 57.7273 42.2727 58.4748 42.2727 59.3937C42.2727 60.3127 41.5253 61.0602 40.6063 61.0602C39.6874 61.0602 38.9399 60.3127 38.9399 59.3937C38.9399 58.4748 39.6874 57.7273 40.6063 57.7273ZM37.0141 37.5754L35.1784 31.1506L41.0348 31.4168L42.0503 37.5754H37.0141ZM41.5145 48.2338C40.6977 48.3299 39.9428 47.8262 39.7174 47.0365L37.8512 40.5051H42.5333L43.7639 47.9691L41.5145 48.2338ZM50.101 47.2236L46.6768 47.6266L45.5028 40.5053H50.101V47.2236ZM50.101 37.5754H45.0196L44.0266 31.5529L50.101 31.8291V37.5754ZM57.5194 46.3508L53.0307 46.8789V40.5051H58.0485L57.5194 46.3508ZM58.3137 37.5754H53.0307V31.9621L58.7981 32.2242L58.3137 37.5754ZM64.8891 43.2363C64.6137 44.6129 63.4919 45.6482 62.0975 45.8123L60.4926 46.0012L60.9901 40.5053H65.4352L64.8891 43.2363ZM66.0214 37.5754H61.2555L61.7278 32.3574L67.0169 32.5979L66.0214 37.5754Z" fill="#E67E22"/>
</svg>
