<svg width="100" height="100" viewBox="0 0 100 100" fill="none" xmlns="http://www.w3.org/2000/svg">
<g clip-path="url(#clip0)">
<path d="M18.9643 58.1414C18.0337 58.0223 17.2901 58.6659 17.1848 59.4889C17.0797 60.3096 17.634 61.1217 18.5676 61.2413C19.4254 61.3506 20.2063 60.7444 20.3159 59.8897C20.4252 59.0338 19.8204 58.251 18.9643 58.1414V58.1414Z" fill="#E67E22"/>
<path d="M100 62.5069C100 54.7208 93.6711 48.4374 85.9381 48.4374C81.0199 48.4374 80.7578 47.9036 74.8343 44.4483C75.5703 42.9735 73.8109 41.5164 72.5005 42.4998L72.0603 42.8301L66.9689 39.86C67.8368 38.3969 66.0529 36.7879 64.688 37.8123L64.1501 38.2158L59.095 35.267C60.1075 33.8119 58.2831 32.0683 56.8755 33.1248L56.2399 33.6014L45.4438 27.3037C42.978 25.865 39.7785 26.5687 38.1666 28.9926L37.6328 29.7951C36.4121 31.6287 36.4131 33.9978 37.635 35.8307L38.3436 36.8936L33.3691 39.3807C30.257 40.9367 26.4336 39.9576 24.4744 37.0184L21.6943 32.848C18.7343 28.4088 12.1089 28.7049 9.55478 33.3865C6.03172 39.8455 6.05692 39.7682 5.58953 40.7496C3.33581 45.1905 2.15749 51.5315 3.07722 57.6315L0.11197 65.0447C-0.177484 65.7683 0.110603 66.5949 0.787559 66.9816C8.1786 71.205 16.5849 73.4375 25.0976 73.4375H85.4309C91.7592 73.4375 97.6911 69.532 99.9221 62.9874C99.9671 62.8509 99.9993 62.6728 100 62.5069V62.5069ZM96.8213 61.439C92.0467 63.1378 85.7775 64.0624 80.649 64.0624C72.923 64.0624 65.1509 63.7126 57.4206 63.023L64.1741 54.0186C70.6326 56.5356 77.422 57.8124 84.3756 57.8124C87.419 57.8124 89.6668 54.9548 88.9229 51.9796C93.1785 53.1889 96.3832 56.9141 96.8213 61.439V61.439ZM40.2342 31.5269C40.853 30.5967 41.3229 29.6873 42.7016 29.6873C43.5948 29.6873 43.2231 29.6261 53.5266 35.6363L50.6256 37.8121C49.9352 38.3299 49.7954 39.3094 50.313 39.9996C50.8299 40.6889 51.8096 40.8305 52.5005 40.3123L56.4563 37.3455L61.4368 40.2508L58.438 42.4998C57.7475 43.0176 57.6077 43.9971 58.1253 44.6873C58.6423 45.3766 59.622 45.5182 60.3128 45L64.3663 41.96L69.3468 44.8653L66.2503 47.1875C65.5599 47.7053 65.42 48.6848 65.9376 49.3751C66.4546 50.0643 67.4343 50.2059 68.1251 49.6878L72.2763 46.5745L77.5439 49.6471C79.7547 50.9366 82.3068 51.5628 84.3752 51.5628C85.2416 51.5628 85.9377 52.2589 85.9377 53.1253C85.9377 53.9917 85.2416 54.6878 84.3752 54.6878C73.3513 54.6878 62.7937 51.2354 54.0477 45.0616L41.7637 36.3912L40.2348 34.0978C39.7147 33.3168 39.7143 32.3078 40.2342 31.5269V31.5269ZM12.2982 34.8836C13.7284 32.2611 17.4376 32.0982 19.0941 34.582L21.8742 38.7524C24.7162 43.0159 30.2586 44.4299 34.7668 42.1762L40.4881 39.3156C52.9934 48.142 55.2387 50.0315 61.2105 52.7626L53.7762 62.6743C51.9317 62.4837 50.0909 62.2718 48.2538 62.0425C47.7446 59.2294 46.2198 56.8485 44.1914 55.2274C41.3049 52.9171 38.0772 51.1046 34.5988 49.8403L9.18193 40.5967L12.2982 34.8836ZM85.4311 70.3124H25.0976C17.5808 70.3124 10.1519 68.4529 3.52605 64.924L5.6868 59.5222L12.3347 60.4101C13.1929 60.5243 13.9763 59.9208 14.0901 59.0681C14.2044 58.2128 13.6036 57.4268 12.7482 57.3126L6.06668 56.4202C5.53426 52.0186 6.14735 47.5225 7.82138 43.4272L33.5314 52.7772C36.6893 53.9249 39.619 55.5702 42.2401 57.6681C43.458 58.6413 44.4321 60.0042 44.9371 61.6079C44.917 61.6052 24.9726 58.9337 24.7916 58.9337C23.9287 58.9337 23.23 59.6333 23.23 60.4962C23.23 61.2966 23.8328 61.9564 24.6086 62.0478C45.7405 64.8675 59.4292 67.1874 80.6494 67.1874C85.3547 67.1874 90.7807 66.4654 95.3518 65.1802C93.1172 68.3439 89.4529 70.3124 85.4311 70.3124V70.3124Z" fill="#E67E22"/>
</g>
<defs>
<clipPath id="clip0">
<rect width="100" height="100" fill="white"/>
</clipPath>
</defs>
</svg>
