<svg width="100" height="100" viewBox="0 0 100 100" fill="none" xmlns="http://www.w3.org/2000/svg">
<path d="M61.7183 50.7812C60.6401 50.7812 59.7651 51.6563 59.7651 52.7344C59.7651 53.8125 60.6401 54.6875 61.7183 54.6875C62.7964 54.6875 63.6714 53.8125 63.6714 52.7344C63.6714 51.6563 62.7964 50.7812 61.7183 50.7812Z" fill="#E67E22"/>
<path d="M0.486779 46.2105C0.492053 46.2166 0.49674 46.2234 0.502209 46.2293C0.50299 46.2301 0.503576 46.2311 0.504358 46.232L48.5512 99.357C48.9092 99.7529 49.4518 100 49.9999 100C50.5461 100 51.0877 99.7557 51.4485 99.357L99.4954 46.232C99.4961 46.2312 99.4967 46.2303 99.4975 46.2293C99.503 46.2232 99.5075 46.2166 99.5129 46.2105C100.139 45.4984 100.155 44.4525 99.5872 43.7238C99.5817 43.7168 99.5776 43.7088 99.5719 43.7018L83.9469 24.1705C83.5764 23.7072 83.0151 23.4375 82.4217 23.4375C74.4594 23.4375 24.0567 23.4375 17.578 23.4375C16.9846 23.4375 16.4235 23.7072 16.0528 24.1705L0.427795 43.7018C0.422131 43.7088 0.418225 43.7166 0.412561 43.7238C-0.161463 44.4602 -0.132166 45.5064 0.486779 46.2105ZM39.3868 27.3438H60.6127L69.9877 42.9688H30.0118L39.3868 27.3438ZM29.5587 46.875H70.4407L49.9997 93.2082L29.5587 46.875ZM74.7104 46.875H93.6469L56.6756 87.7535L74.7104 46.875ZM25.2891 46.875L43.3237 87.7535L6.3526 46.875H25.2891ZM93.9829 42.9688H74.543L65.168 27.3438H81.4829L93.9829 42.9688ZM18.5165 27.3438H34.8313L25.4563 42.9688H6.01647L18.5165 27.3438Z" fill="#E67E22"/>
<path d="M53.9058 50.7812H39.4097C38.331 50.7812 37.4565 51.6557 37.4565 52.7344C37.4565 53.8131 38.331 54.6875 39.4097 54.6875H53.9058C54.9845 54.6875 55.8589 53.8131 55.8589 52.7344C55.8589 51.6557 54.9845 50.7812 53.9058 50.7812Z" fill="#E67E22"/>
<path d="M49.9995 15.625C51.0782 15.625 51.9526 14.7506 51.9526 13.6719V1.95312C51.9526 0.874414 51.0782 0 49.9995 0C48.9208 0 48.0464 0.874414 48.0464 1.95312V13.6719C48.0464 14.7506 48.9208 15.625 49.9995 15.625Z" fill="#E67E22"/>
<path d="M63.0995 15.0529L70.912 7.24041C71.6747 6.47771 71.6747 5.24099 70.912 4.4781C70.1493 3.71521 68.9126 3.71541 68.1497 4.4781L60.3372 12.2906C59.5745 13.0533 59.5745 14.29 60.3372 15.0529C61.0999 15.8156 62.3366 15.8158 63.0995 15.0529Z" fill="#E67E22"/>
<path d="M36.8997 15.0528C37.6624 15.8155 38.8991 15.8155 39.662 15.0528C40.4247 14.2901 40.4247 13.0534 39.662 12.2905L31.8495 4.47803C31.0868 3.71533 29.8501 3.71533 29.0872 4.47803C28.3243 5.24072 28.3245 6.47744 29.0872 7.24033L36.8997 15.0528Z" fill="#E67E22"/>
</svg>
