<svg width="100" height="100" viewBox="0 0 100 100" fill="none" xmlns="http://www.w3.org/2000/svg">
<g clip-path="url(#clip0)">
<path d="M100 37.5702V30.6229C100 28.746 98.4726 27.2186 96.5958 27.2186C95.3934 27.2186 94.2635 26.7509 93.4135 25.9026C92.5636 25.0511 92.0952 23.9204 92.0952 22.7188V10.4858C92.0952 8.58078 90.5457 7.03125 88.6406 7.03125H84.4742C82.5691 7.03125 81.0196 8.58154 81.0196 10.4858V17.646C81.0196 22.0879 77.4773 25.7607 73.1239 25.8339C70.9595 25.8675 68.9026 25.0519 67.3553 23.5298C65.8073 22.007 64.9551 19.973 64.9551 17.8024V10.4858C64.9551 8.58078 63.4048 7.03125 61.4998 7.03125H57.3341C55.4291 7.03125 53.8788 8.58154 53.8788 10.4858V14.9002C53.8788 15.7097 54.5349 16.3651 55.3436 16.3651C56.1531 16.3651 56.8085 15.7097 56.8085 14.9002V10.4858C56.8085 10.1967 57.0442 9.96094 57.3341 9.96094H61.4998C61.7897 9.96094 62.0255 10.1967 62.0255 10.4858V17.8024C62.0255 20.7649 63.1889 23.5405 65.3008 25.618C67.4126 27.6955 70.208 28.8063 73.1728 28.7636C79.1153 28.6629 83.9493 23.6755 83.9493 17.646V10.4858C83.9493 10.1967 84.185 9.96094 84.4742 9.96094H88.6406C88.9297 9.96094 89.1655 10.1967 89.1655 10.4858V22.7188C89.1655 24.7017 89.9376 26.5678 91.3422 27.9739C92.7467 29.3762 94.6121 30.1483 96.5958 30.1483C96.8575 30.1483 97.0703 30.3612 97.0703 30.6229V36.6753L72.9866 48.23L48.9044 36.676V30.6229C48.9044 30.4611 48.9799 30.3513 49.0463 30.2849C49.0974 30.2338 49.2081 30.1483 49.379 30.1483C53.476 30.1483 56.8085 26.8158 56.8085 22.7188V20.7596C56.8085 19.9509 56.1531 19.2947 55.3436 19.2947C54.5349 19.2947 53.8788 19.9509 53.8788 20.7596V22.7188C53.8788 25.1999 51.86 27.2186 49.379 27.2186C48.4665 27.2186 47.6105 27.5734 46.9719 28.2158C46.3287 28.8589 45.9747 29.7142 45.9747 30.6229V37.5473C45.974 37.5801 45.974 37.6129 45.9747 37.6457V61.9858L38.4415 66.5009C37.3802 65.892 36.1656 65.564 34.9335 65.564H26.1932V40.2588H34.9335C38.8161 40.2588 41.9746 37.1002 41.9746 33.2176C41.9746 29.335 38.8161 26.1765 34.9335 26.1765H33.3992V24.5766C33.3992 21.4066 30.8197 18.8278 27.6497 18.8278H26.1932V15.9569C26.1932 14.2876 24.8352 12.9295 23.1659 12.9295H18.8087C17.1394 12.9295 15.7814 14.2876 15.7814 15.9569V18.8278H14.325C11.1549 18.8278 8.57544 21.4066 8.57544 24.5766V26.1765H7.04117C6.39801 26.1765 5.76096 26.2634 5.14679 26.4343C4.36783 26.6518 3.91159 27.4597 4.12903 28.2394C4.34647 29.0184 5.15366 29.4731 5.93414 29.2564C6.29196 29.1565 6.66428 29.1061 7.04117 29.1061H34.9335C37.2009 29.1061 39.045 30.9502 39.045 33.2176C39.045 35.4843 37.2009 37.3283 34.9335 37.3283H7.04117C4.77371 37.3283 2.92969 35.4843 2.92969 33.2176C2.92969 32.9849 2.94952 32.7507 2.98767 32.5233C3.12271 31.7253 2.5856 30.9692 1.78833 30.8342C0.991058 30.6984 0.234222 31.2363 0.099182 32.0343C0.0335693 32.4234 0 32.8217 0 33.2176C0 37.1002 3.15857 40.2588 7.04117 40.2588H15.7814V65.564H7.04117C3.15857 65.564 0 68.7225 0 72.6051C0 74.4835 0.731659 76.252 2.06299 77.5856C3.39432 78.9146 5.16281 79.6463 7.04117 79.6463H8.5762V81.2454C8.5762 84.4162 11.1549 86.9957 14.3242 86.9957H15.7814V89.8666C15.7814 91.5359 17.1394 92.894 18.8087 92.894H23.1659C24.8352 92.894 26.1932 91.5359 26.1932 89.8666V86.9957H26.2512C26.5541 87.3932 26.8875 87.7708 27.2514 88.1256C29.2191 90.0475 31.7711 91.0255 34.3719 91.0255H87.1834C90.2672 91.0255 92.7765 88.5162 92.7765 85.4317V76.7555H93.5585C97.1107 76.7555 100 73.8655 100 70.314V37.6205C100 37.6038 100 37.587 100 37.5702V37.5702ZM18.7111 15.9569C18.7111 15.9035 18.7546 15.8592 18.8087 15.8592H23.1659C23.2201 15.8592 23.2635 15.9035 23.2635 15.9569V18.8278H18.7111V15.9569ZM11.5051 26.1765V24.5766C11.5051 23.0217 12.7701 21.7575 14.325 21.7575H17.2157H17.2462H17.276H24.6979H24.7284H24.7589H27.6497C29.2046 21.7575 30.4695 23.0217 30.4695 24.5766V26.1765H11.5051ZM61.4304 58.6777C62.085 58.6777 62.674 59.0912 62.8975 59.7061C64.5981 64.3982 69.0941 67.5507 74.0837 67.5507C79.1801 67.5507 83.7074 64.3089 85.3485 59.4841C85.5125 59.0019 85.9657 58.6777 86.4754 58.6777H87.3856C88.7428 58.6777 89.8468 59.7816 89.8468 61.1389V79.5929H69.5663L64.7614 72.7081C64.299 72.0451 63.385 71.8826 62.722 72.3457C62.059 72.8081 61.8965 73.7213 62.3589 74.3851L65.9935 79.5929H62.4786L53.4302 66.6252L55.909 65.139L59.0073 69.5801C59.2926 69.9883 59.7473 70.2072 60.2104 70.2072C60.4996 70.2072 60.7918 70.1218 61.0466 69.9432C61.7104 69.4801 61.8729 68.5669 61.4105 67.9039L58.2924 63.4346C59.1209 62.5008 59.6024 61.2785 59.6024 60.0029V58.6777H61.4304ZM55.4924 79.5929L48.5039 69.5778L50.9109 68.1351L58.9058 79.5929H55.4924ZM48.4039 79.5929L43.5059 72.5739L45.9846 71.0884L51.9196 79.5937H48.4039V79.5929ZM34.8373 72.0764C34.9121 72.2122 34.9976 72.3434 35.0929 72.4678C36.0687 73.7373 37.5473 74.4171 39.0526 74.4171C39.6942 74.4171 40.3412 74.2935 40.9561 74.0387L44.8318 79.5929H27.2118C27.5719 77.5337 28.8155 75.6859 30.6358 74.5956L34.8373 72.0764ZM56.6727 58.9905V60.0037C56.6727 60.7735 56.2668 61.4975 55.6122 61.9011C55.5862 61.9164 55.5603 61.9316 55.5351 61.9484L50.6172 64.8956C50.592 64.9101 50.5669 64.9254 50.5417 64.9414L45.6673 67.8627C45.6581 67.868 45.6482 67.8741 45.639 67.8802L40.1093 71.1945C39.2113 71.7331 38.0539 71.5126 37.4153 70.6825C37.4077 70.6726 37.384 70.6413 37.394 70.5902C37.4023 70.5452 37.429 70.5246 37.4428 70.5154L39.1205 69.5099C39.1396 69.4992 39.1594 69.487 39.1785 69.4748L56.6071 59.0279C56.6292 59.0149 56.6505 59.0027 56.6727 58.9905V58.9905ZM18.7111 40.2588H23.2635V65.564H18.7111V40.2588ZM11.5059 81.2462V79.6463H19.7815C20.5902 79.6463 21.2463 78.9909 21.2463 78.1815C21.2463 77.3727 20.5902 76.7166 19.7815 76.7166H7.04117C5.94406 76.7166 4.91104 76.2894 4.13437 75.5142C3.3577 74.7353 2.92969 73.7022 2.92969 72.6051C2.92969 70.3384 4.77371 68.4937 7.04117 68.4937H34.9335C34.993 68.4937 35.0517 68.4952 35.1105 68.4975L29.1298 72.0825C26.0735 73.9143 24.1753 77.2652 24.1753 80.8289C24.1753 81.8024 24.3126 82.7446 24.5682 83.6365C24.5712 83.6479 24.575 83.6594 24.5781 83.6708C24.5804 83.6784 24.5827 83.6861 24.585 83.6937C24.6208 83.8188 24.6597 83.9424 24.7009 84.066H14.3242C12.7701 84.066 11.5059 82.8011 11.5059 81.2462V81.2462ZM23.2635 89.8666C23.2635 89.92 23.2193 89.9643 23.1659 89.9643H18.8087C18.7553 89.9643 18.7111 89.92 18.7111 89.8666V86.9957H23.2635V89.8666ZM89.8468 85.4317C89.8468 86.9011 88.652 88.0959 87.1826 88.0959C53.3936 88.0959 34.3338 88.0974 34.1782 88.0936C30.8395 88.0058 28.0548 85.6552 27.3041 82.5226H47.6036C47.6166 82.5233 47.6288 82.5233 47.6418 82.5233C47.6547 82.5233 47.6677 82.5233 47.6807 82.5226H54.6913C54.7043 82.5233 54.7165 82.5233 54.7295 82.5233C54.7424 82.5233 54.7554 82.5233 54.7684 82.5226H61.6776C61.6905 82.5233 61.7035 82.5233 61.7157 82.5233C61.7287 82.5233 61.7416 82.5233 61.7546 82.5226H68.7653C68.7782 82.5233 68.7904 82.5233 68.8034 82.5233C68.8164 82.5233 68.8293 82.5233 68.8423 82.5226H89.8468V85.4317ZM93.5585 73.8258H92.7765V61.1389C92.7765 58.1665 90.358 55.748 87.3856 55.748H86.4754C84.7107 55.748 83.1436 56.8703 82.5745 58.5403C81.3377 62.1773 77.9251 64.6202 74.0837 64.6202C70.3217 64.6202 66.9334 62.2444 65.6509 58.7082C65.0093 56.9374 63.3133 55.748 61.4296 55.748C58.1642 55.8319 56.9199 55.4276 55.101 56.5155L48.9037 60.2295V39.9254L72.3526 51.1757C72.5533 51.2718 72.7699 51.3199 72.9866 51.3199C73.2033 51.3199 73.42 51.2718 73.6198 51.1757L97.0695 39.9246V70.314C97.0703 72.2504 95.4948 73.8258 93.5585 73.8258V73.8258Z" fill="#E67E22"/>
<path d="M71.4593 32.8408H70.4751C69.6656 32.8408 69.0103 33.4962 69.0103 34.3057C69.0103 35.1144 69.6656 35.7705 70.4751 35.7705H70.7849V40.8372H70.6063C69.7968 40.8372 69.1415 41.4926 69.1415 42.302C69.1415 43.1115 69.7968 43.7669 70.6063 43.7669H73.8931C74.7025 43.7669 75.3579 43.1115 75.3579 42.302C75.3579 41.4926 74.7025 40.8372 73.8931 40.8372H73.7145V35.0961C73.7145 33.8525 72.7029 32.8408 71.4593 32.8408Z" fill="#E67E22"/>
</g>
<defs>
<clipPath id="clip0">
<rect width="100" height="100" fill="white"/>
</clipPath>
</defs>
</svg>
