<svg width="50" height="50" viewBox="0 0 50 50" fill="none" xmlns="http://www.w3.org/2000/svg">
<path d="M29.0075 24.5825L23.3925 21.9625C22.9025 21.735 22.5 21.99 22.5 22.5325V27.4675C22.5 28.01 22.9025 28.265 23.3925 28.0375L29.005 25.4175C29.4975 25.1875 29.4975 24.8125 29.0075 24.5825ZM25 1C11.745 1 1 11.745 1 25C1 38.255 11.745 49 25 49C38.255 49 49 38.255 49 25C49 11.745 38.255 1 25 1ZM25 34.75C12.715 34.75 12.5 33.6425 12.5 25C12.5 16.3575 12.715 15.25 25 15.25C37.285 15.25 37.5 16.3575 37.5 25C37.5 33.6425 37.285 34.75 25 34.75Z" fill="white"/>
</svg>
