<svg width="100" height="100" viewBox="0 0 100 100" fill="none" xmlns="http://www.w3.org/2000/svg">
<path d="M50.0001 77.8955C52.0958 77.8955 53.7948 76.1965 53.7948 74.1008C53.7948 72.005 52.0958 70.306 50.0001 70.306C47.9043 70.306 46.2053 72.005 46.2053 74.1008C46.2053 76.1965 47.9043 77.8955 50.0001 77.8955Z" fill="white"/>
<path d="M100 14.9479V9.0885H73.1027V14.9479H83.6215V24.3367H78.6969V29.2614H61.9838L56.7242 18.7424H43.2756L38.016 29.2614H21.3029V24.3367H16.3783V14.9479H26.8973V9.0885H0V14.9479H10.5189V24.3367H5.59434V32.191C5.59434 36.5289 9.11094 40.0453 13.4486 40.0453C16.7506 40.0453 19.5746 38.0069 20.7361 35.1207H31.292L35.0865 42.71H64.9135L68.708 35.1207H79.2639C80.4254 38.0069 83.2494 40.0453 86.5514 40.0453C90.8893 40.0453 94.4057 36.5289 94.4057 32.191V24.3367H89.4809V14.9479H100Z" fill="white"/>
<path d="M66.8109 57.29H57.5232V48.5695H43.2758V57.29H33.1893C29.4756 57.29 26.4648 60.3006 26.4648 64.0142V84.1873C26.4648 87.901 29.4754 90.9117 33.1893 90.9117H66.8109C70.5246 90.9117 73.5352 87.9012 73.5352 84.1873V64.0142C73.5352 60.3006 70.5246 57.29 66.8109 57.29ZM50 83.7549C44.6768 83.7549 40.3459 79.424 40.3459 74.1008C40.3459 68.7775 44.6768 64.4467 50 64.4467C55.3232 64.4467 59.6541 68.7775 59.6541 74.1008C59.6541 79.424 55.3232 83.7549 50 83.7549Z" fill="white"/>
</svg>
