<svg width="100" height="100" viewBox="0 0 100 100" fill="none" xmlns="http://www.w3.org/2000/svg">
<path d="M72.2915 0H27.7086C23.9943 0 20.9543 3.03714 20.9543 6.75429V93.2429C20.9543 96.96 23.9943 100 27.7086 100H72.2915C76.0058 100 79.0458 96.9657 79.0458 93.2457V6.75429C79.0458 3.03714 76.0058 0 72.2915 0ZM42.8686 4.86857H57.1315C57.5829 4.86857 57.9486 5.23429 57.9486 5.68857C57.9486 6.14 57.5829 6.50571 57.1315 6.50571H42.8686C42.4172 6.50571 42.0515 6.14 42.0515 5.68857C42.0515 5.23429 42.4172 4.86857 42.8686 4.86857ZM50.0001 96.6229C48.1343 96.6229 46.6229 95.1114 46.6229 93.2429C46.6229 91.3743 48.1343 89.8657 50.0001 89.8657C51.8658 89.8657 53.3772 91.3743 53.3772 93.2429C53.3772 95.1114 51.8658 96.6229 50.0001 96.6229ZM74.3458 87.5H25.6543V10.7114H74.3458V87.5Z" fill="white"/>
</svg>
