<svg width="100" height="100" viewBox="0 0 100 100" fill="none" xmlns="http://www.w3.org/2000/svg">
<path d="M23.4375 59.375C25.1634 59.375 26.5625 57.9759 26.5625 56.25C26.5625 54.5241 25.1634 53.125 23.4375 53.125C21.7116 53.125 20.3125 54.5241 20.3125 56.25C20.3125 57.9759 21.7116 59.375 23.4375 59.375Z" fill="white"/>
<path d="M59.375 78.125H57.8125V82.8125H59.375C59.7894 82.8125 60.1868 82.6479 60.4799 82.3549C60.7729 82.0618 60.9375 81.6644 60.9375 81.25V79.6875C60.9375 79.2731 60.7729 78.8757 60.4799 78.5826C60.1868 78.2896 59.7894 78.125 59.375 78.125Z" fill="white"/>
<path d="M51.5625 68.75H54.6875V89.0625H51.5625V68.75Z" fill="white"/>
<path d="M4.6875 51.5625V54.6875C4.6875 55.1019 4.85212 55.4993 5.14515 55.7924C5.43817 56.0854 5.8356 56.25 6.25 56.25H7.8125V50H6.25C5.8356 50 5.43817 50.1646 5.14515 50.4576C4.85212 50.7507 4.6875 51.1481 4.6875 51.5625Z" fill="white"/>
<path d="M25 78.125H42.1875V82.8125H25V78.125Z" fill="white"/>
<path d="M39.0625 92.1875H60.9375V95.3125H39.0625V92.1875Z" fill="white"/>
<path d="M45.3125 68.75H48.4375V89.0625H45.3125V68.75Z" fill="white"/>
<path d="M37.5 57.8125C38.3629 57.8125 39.0625 57.1129 39.0625 56.25C39.0625 55.3871 38.3629 54.6875 37.5 54.6875C36.6371 54.6875 35.9375 55.3871 35.9375 56.25C35.9375 57.1129 36.6371 57.8125 37.5 57.8125Z" fill="white"/>
<path d="M75 39.0625C78.4518 39.0625 81.25 36.2643 81.25 32.8125C81.25 29.3607 78.4518 26.5625 75 26.5625C71.5482 26.5625 68.75 29.3607 68.75 32.8125C68.75 36.2643 71.5482 39.0625 75 39.0625Z" fill="white"/>
<path d="M25 4.6875H32.8125V9.375H25V4.6875Z" fill="white"/>
<path d="M75 20.3125C72.5277 20.3125 70.111 21.0456 68.0554 22.4191C65.9998 23.7926 64.3976 25.7449 63.4515 28.029C62.5054 30.313 62.2579 32.8264 62.7402 35.2511C63.2225 37.6759 64.413 39.9032 66.1612 41.6513C67.9093 43.3995 70.1366 44.59 72.5614 45.0723C74.9861 45.5546 77.4995 45.3071 79.7836 44.361C82.0676 43.4149 84.0199 41.8127 85.3934 39.7571C86.7669 37.7015 87.5 35.2848 87.5 32.8125C87.4963 29.4984 86.1781 26.3212 83.8347 23.9778C81.4913 21.6344 78.3141 20.3162 75 20.3125ZM75 42.1875C73.1458 42.1875 71.3333 41.6377 69.7915 40.6075C68.2498 39.5774 67.0482 38.1132 66.3386 36.4002C65.6291 34.6871 65.4434 32.8021 65.8051 30.9835C66.1669 29.165 67.0598 27.4945 68.3709 26.1834C69.682 24.8723 71.3525 23.9794 73.171 23.6176C74.9896 23.2559 76.8746 23.4416 78.5877 24.1511C80.3007 24.8607 81.7649 26.0623 82.795 27.604C83.8252 29.1457 84.375 30.9583 84.375 32.8125C84.3725 35.2981 83.384 37.6813 81.6264 39.4389C79.8688 41.1965 77.4857 42.185 75 42.1875Z" fill="white"/>
<path d="M85.9375 9.375V7.8125C85.9375 7.3981 85.7729 7.00067 85.4799 6.70765C85.1868 6.41462 84.7894 6.25 84.375 6.25H35.9375V9.375H85.9375Z" fill="white"/>
<path d="M21.875 6.25H20.3125C19.8981 6.25 19.5007 6.41462 19.2076 6.70765C18.9146 7.00067 18.75 7.3981 18.75 7.8125V9.375H21.875V6.25Z" fill="white"/>
<path d="M90.625 12.5H59.375C58.1318 12.5 56.9395 12.9939 56.0604 13.8729C55.1814 14.752 54.6875 15.9443 54.6875 17.1875V48.4375C54.6875 49.6807 55.1814 50.873 56.0604 51.7521C56.9395 52.6311 58.1318 53.125 59.375 53.125H90.625C91.8682 53.125 93.0605 52.6311 93.9396 51.7521C94.8186 50.873 95.3125 49.6807 95.3125 48.4375V17.1875C95.3125 15.9443 94.8186 14.752 93.9396 13.8729C93.0605 12.9939 91.8682 12.5 90.625 12.5ZM75 48.4375C71.9097 48.4375 68.8887 47.5211 66.3192 45.8042C63.7497 44.0873 61.747 41.647 60.5644 38.7919C59.3818 35.9368 59.0723 32.7952 59.6752 29.7642C60.2781 26.7333 61.7663 23.9492 63.9515 21.764C66.1367 19.5788 68.9208 18.0906 71.9517 17.4877C74.9827 16.8848 78.1243 17.1943 80.9794 18.3769C83.8345 19.5595 86.2748 21.5622 87.9917 24.1317C89.7086 26.7012 90.625 29.7222 90.625 32.8125C90.6204 36.9551 88.9728 40.9267 86.0435 43.856C83.1142 46.7853 79.1426 48.4329 75 48.4375Z" fill="white"/>
<path d="M59.375 56.25C57.3038 56.2475 55.3181 55.4236 53.8535 53.959C52.3889 52.4944 51.565 50.5087 51.5625 48.4375V17.1875C51.5682 15.4915 52.1316 13.8444 53.1656 12.5H15.625C14.3818 12.5 13.1895 12.9939 12.3104 13.8729C11.4314 14.752 10.9375 15.9443 10.9375 17.1875V60.9375C10.9375 62.1807 11.4314 63.373 12.3104 64.2521C13.1895 65.1311 14.3818 65.625 15.625 65.625H90.625C91.8682 65.625 93.0605 65.1311 93.9396 64.2521C94.8186 63.373 95.3125 62.1807 95.3125 60.9375V54.6469C93.9681 55.6809 92.321 56.2443 90.625 56.25H59.375ZM23.4375 62.5C22.2014 62.5 20.993 62.1334 19.9652 61.4467C18.9374 60.7599 18.1363 59.7838 17.6633 58.6418C17.1902 57.4997 17.0664 56.2431 17.3076 55.0307C17.5487 53.8183 18.144 52.7047 19.0181 51.8306C19.8922 50.9565 21.0058 50.3612 22.2182 50.1201C23.4306 49.8789 24.6872 50.0027 25.8293 50.4758C26.9713 50.9488 27.9474 51.7499 28.6342 52.7777C29.3209 53.8055 29.6875 55.0139 29.6875 56.25C29.6875 57.9076 29.029 59.4973 27.8569 60.6694C26.6848 61.8415 25.0951 62.5 23.4375 62.5ZM37.5 60.9375C36.5729 60.9375 35.6666 60.6626 34.8958 60.1475C34.1249 59.6324 33.5241 58.9004 33.1693 58.0438C32.8145 57.1873 32.7217 56.2448 32.9026 55.3355C33.0834 54.4262 33.5299 53.591 34.1854 52.9354C34.841 52.2799 35.6762 51.8334 36.5855 51.6526C37.4948 51.4717 38.4373 51.5645 39.2938 51.9193C40.1504 52.2741 40.8824 52.8749 41.3975 53.6458C41.9126 54.4166 42.1875 55.3229 42.1875 56.25C42.1875 57.4932 41.6936 58.6855 40.8146 59.5646C39.9355 60.4436 38.7432 60.9375 37.5 60.9375ZM42.1875 45.3125C42.1875 45.7269 42.0229 46.1243 41.7299 46.4174C41.4368 46.7104 41.0394 46.875 40.625 46.875H18.75C18.3356 46.875 17.9382 46.7104 17.6451 46.4174C17.3521 46.1243 17.1875 45.7269 17.1875 45.3125V17.1875C17.1875 16.7731 17.3521 16.3757 17.6451 16.0826C17.9382 15.7896 18.3356 15.625 18.75 15.625H40.625C41.0394 15.625 41.4368 15.7896 41.7299 16.0826C42.0229 16.3757 42.1875 16.7731 42.1875 17.1875V45.3125Z" fill="white"/>
<path d="M20.3125 18.75H39.0625V43.75H20.3125V18.75Z" fill="white"/>
<path d="M17.1875 74.9985H21.875V85.9375H17.1875V74.9985Z" fill="white"/>
</svg>
