<svg width="100" height="91" viewBox="0 0 100 91" fill="none" xmlns="http://www.w3.org/2000/svg">
<g clip-path="url(#clip0)">
<path d="M0.181818 70.5508C0.484818 70.066 0.969636 70.0356 1.63636 70.4599C16.7878 79.2478 33.2727 83.6417 51.0909 83.6417C62.9696 83.6417 74.6969 81.4296 86.2727 77.0054C86.5757 76.8842 87.0151 76.7024 87.5909 76.4599C88.1666 76.2175 88.5757 76.0356 88.8182 75.9145C89.7273 75.5508 90.4394 75.7326 90.9546 76.4599C91.4696 77.1872 91.303 77.8538 90.4546 78.4599C89.3636 79.2478 87.9696 80.1569 86.2727 81.1872C81.0606 84.2781 75.2424 86.672 68.8182 88.369C62.3939 90.066 56.1212 90.9145 50 90.9145C40.5455 90.9145 31.606 89.2629 23.1818 85.9599C14.7575 82.6569 7.21209 78.0054 0.545455 72.0054C0.181818 71.7024 0 71.3993 0 71.0963C0 70.9145 0.0605455 70.7326 0.181818 70.5508ZM27.5455 44.6417C27.5455 40.4599 28.5757 36.8842 30.6364 33.9145C32.6969 30.9447 35.5151 28.7024 39.0909 27.1872C42.3636 25.7933 46.3939 24.7933 51.1818 24.1872C52.8182 24.0054 55.4848 23.7629 59.1818 23.4599V21.9145C59.1818 18.0356 58.7576 15.4296 57.9091 14.0963C56.6364 12.2781 54.6364 11.369 51.9091 11.369H51.1818C49.1818 11.5508 47.4546 12.1872 46 13.2781C44.5455 14.369 43.606 15.8842 43.1818 17.8236C42.9394 19.0356 42.3333 19.7326 41.3636 19.9145L30.9091 18.6417C29.8787 18.3993 29.3636 17.8538 29.3636 17.0054C29.3636 16.8236 29.3939 16.6115 29.4545 16.369C30.4848 10.9751 33.0151 6.9751 37.0455 4.36901C41.0757 1.76292 45.7878 0.308371 51.1818 0.00537109H53.4546C60.3636 0.00537109 65.7576 1.79328 69.6364 5.36901C70.2448 5.97783 70.8069 6.63115 71.3182 7.32355C71.8333 8.02055 72.2424 8.64173 72.5455 9.18719C72.8485 9.73264 73.1212 10.5206 73.3636 11.5508C73.606 12.5811 73.7878 13.2933 73.9091 13.6872C74.0303 14.0811 74.1212 14.9296 74.1818 16.2326C74.2424 17.5356 74.2727 18.3084 74.2727 18.5508V40.5508C74.2727 42.1266 74.5 43.566 74.9546 44.869C75.4091 46.172 75.8485 47.1115 76.2727 47.6872C76.6969 48.2629 77.3939 49.1872 78.3636 50.4599C78.7273 51.0054 78.9091 51.4902 78.9091 51.9145C78.9091 52.3993 78.6666 52.8236 78.1818 53.1872C73.1515 57.5508 70.4242 59.9145 70 60.2781C69.2727 60.8236 68.3939 60.8842 67.3636 60.4599C66.5151 59.7326 65.7727 59.0356 65.1364 58.369C64.5 57.7024 64.0455 57.2175 63.7727 56.9145C63.5 56.6115 63.0606 56.0206 62.4546 55.1417C61.8485 54.2629 61.4242 53.672 61.1818 53.369C57.7878 57.066 54.4546 59.369 51.1818 60.2781C49.1212 60.8842 46.5757 61.1872 43.5455 61.1872C38.8787 61.1872 35.0455 59.7478 32.0455 56.869C29.0455 53.9902 27.5455 49.9145 27.5455 44.6417ZM43.1818 42.8236C43.1818 45.1872 43.7727 47.0811 44.9546 48.5054C46.1364 49.9296 47.7273 50.6417 49.7273 50.6417C49.9091 50.6417 50.1666 50.6115 50.5 50.5508C50.8333 50.4902 51.0606 50.4599 51.1818 50.4599C53.7273 49.7933 55.6969 48.1569 57.0909 45.5508C57.7576 44.3993 58.2576 43.1417 58.5909 41.7781C58.9242 40.4145 59.106 39.3084 59.1364 38.4599C59.1666 37.6115 59.1818 36.2175 59.1818 34.2781V32.0054C55.6666 32.0054 53 32.2478 51.1818 32.7326C45.8485 34.2478 43.1818 37.6115 43.1818 42.8236ZM81.3636 72.0963C81.4848 71.8538 81.6666 71.6115 81.9091 71.369C83.4242 70.3387 84.8787 69.6417 86.2727 69.2781C88.5757 68.672 90.8182 68.3387 93 68.2781C93.606 68.2175 94.1818 68.2478 94.7273 68.369C97.4546 68.6115 99.0909 69.066 99.6364 69.7326C99.8787 70.0963 100 70.6417 100 71.369V72.0054C100 74.1266 99.4242 76.6266 98.2727 79.5054C97.1212 82.3842 95.5151 84.7024 93.4546 86.4599C93.1515 86.7024 92.8787 86.8236 92.6364 86.8236C92.5151 86.8236 92.3939 86.7933 92.2727 86.7326C91.9091 86.5508 91.8182 86.2175 92 85.7326C94.2424 80.4599 95.3636 76.7933 95.3636 74.7326C95.3636 74.066 95.2424 73.5811 95 73.2781C94.3939 72.5508 92.6969 72.1872 89.9091 72.1872C88.8787 72.1872 87.6666 72.2478 86.2727 72.369C84.7576 72.5508 83.3636 72.7326 82.0909 72.9145C81.7273 72.9145 81.4848 72.8538 81.3636 72.7326C81.2424 72.6115 81.2121 72.4902 81.2727 72.369C81.2727 72.3084 81.303 72.2175 81.3636 72.0963Z" fill="#E67E22"/>
</g>
<defs>
<clipPath id="clip0">
<rect width="100" height="90.92" fill="white"/>
</clipPath>
</defs>
</svg>
