<svg width="100" height="100" viewBox="0 0 100 100" fill="none" xmlns="http://www.w3.org/2000/svg">
<g clip-path="url(#clip0)">
<path d="M99.349 24.512L79.1961 9.00903C78.0298 8.11117 76.7037 7.44281 75.2882 7.03969L65.8726 4.34925L62.8453 1.3219C62.2843 0.75862 61.4031 0.671315 60.7423 1.1135C57.4954 3.06546 53.7882 4.11917 50.0001 4.16683C46.2138 4.10785 42.5093 3.05491 39.2579 1.1135C38.5972 0.672096 37.7165 0.759401 37.155 1.3219L34.1276 4.34925L24.712 7.03969C23.2964 7.44281 21.9704 8.11117 20.8042 9.00903L0.651003 24.512C-0.0441155 25.0466 -0.20642 26.0284 0.279909 26.7581L13.6133 46.7581C13.8721 47.1472 14.2827 47.4095 14.7446 47.4808C15.2061 47.5509 15.676 47.4259 16.0419 47.1359L21.6669 42.6355V97.5004C21.6667 97.9426 21.8421 98.3666 22.1548 98.6791C22.4674 98.9916 22.8915 99.1672 23.3335 99.167H76.667C77.1091 99.1672 77.5332 98.9918 77.8457 98.6791C78.1584 98.3664 78.3338 97.9424 78.3336 97.5004V42.6355L83.9586 47.1359C84.3236 47.4275 84.7941 47.5527 85.2558 47.481C85.7176 47.4091 86.1277 47.147 86.3871 46.7583L99.7205 26.7583C100.206 26.0284 100.044 25.0466 99.349 24.512ZM75.0002 95.8338H50.0001H25.0001V92.5004H75.0002V95.8338ZM84.6224 43.3972L81.4369 40.8482L89.7203 28.4249C90.2256 27.6593 90.017 26.6292 89.2537 26.1202C88.4904 25.6114 87.4594 25.8149 86.9469 26.5759L78.8246 38.7579L77.7086 37.8649C77.2082 37.4647 76.5224 37.3866 75.9449 37.6644C75.3673 37.9421 75 38.5263 75.0002 39.1671V89.1672H25.0001V39.1671C25.0001 38.5263 24.6329 37.9421 24.0553 37.6646C23.4778 37.3868 22.7923 37.4647 22.2917 37.8651L21.1756 38.7581L13.0534 26.5761C12.5389 25.8204 11.5118 25.6202 10.7512 26.1272C9.99067 26.6343 9.78032 27.6595 10.2801 28.4249L18.5635 40.8482L15.3778 43.3972L3.91781 26.2048L22.8356 11.6524C23.6686 11.011 24.6159 10.5338 25.627 10.2461L35.4577 7.43695C35.7302 7.35902 35.9784 7.21273 36.1786 7.01215L38.6054 4.58539C42.1159 6.45433 46.0235 7.45395 50.0003 7.50043C53.9771 7.45395 57.8847 6.45433 61.3952 4.58539L63.822 7.01215C64.0224 7.21273 64.2704 7.35902 64.5431 7.43695L74.3738 10.2463C75.3849 10.534 76.3322 11.0112 77.1652 11.6526L96.0828 26.205L84.6224 43.3972Z" fill="#E67E22"/>
</g>
<defs>
<clipPath id="clip0">
<rect width="100" height="100" fill="white"/>
</clipPath>
</defs>
</svg>
