<svg width="100" height="100" viewBox="0 0 100 100" fill="none" xmlns="http://www.w3.org/2000/svg">
<g clip-path="url(#clip0)">
<path d="M96.4107 16.119L85.9502 10.5447C84.6722 9.86406 83.6874 9.38865 82.145 8.82731C80.6008 8.26537 79.5412 7.99661 78.1259 7.69719L66.53 5.2432C63.2803 4.55548 60.3003 6.02662 59.2833 8.82067L57.2793 14.3271C56.9103 15.3406 57.433 16.4616 58.4467 16.8303L59.5391 17.228L58.5764 21.0078C56.0378 19.583 53.1125 18.7689 50.0001 18.7689C46.8877 18.7689 43.9622 19.583 41.4237 21.008L40.4609 17.2282L41.5531 16.8307C42.0399 16.6538 42.4364 16.2903 42.6553 15.8209C42.8743 15.3514 42.8977 14.8142 42.7206 14.3275L40.7164 8.82067C39.6994 6.02643 36.7194 4.55509 33.4697 5.2432L21.8739 7.69719C20.4585 7.99661 19.3989 8.26557 17.8549 8.82731C16.3124 9.38885 15.3276 9.86426 14.0496 10.5449L3.58931 16.119C0.657568 17.6809 -0.679393 20.7234 0.337635 23.5173L2.34181 29.0235C2.63049 29.8169 3.37954 30.3093 4.17742 30.3093C4.39911 30.3093 4.62489 30.2712 4.84522 30.1911L5.93744 29.7937L7.64531 33.3407C6.75661 33.7725 6.32027 34.8153 6.66579 35.7642C6.95447 36.5576 7.70352 37.05 8.5014 37.05C8.72309 37.05 8.94888 37.0119 9.1692 36.9318L9.34362 36.8683L11.0515 40.4151C10.1628 40.847 9.72664 41.8898 10.072 42.8387C10.3606 43.632 11.1097 44.1244 11.9076 44.1244C12.1293 44.1244 12.3551 44.0864 12.5754 44.0061L12.7498 43.9426L14.4575 47.4894C13.5688 47.9215 13.1326 48.9641 13.4781 49.9129C13.7668 50.7063 14.5159 51.1987 15.3137 51.1987C15.5354 51.1987 15.761 51.1606 15.9815 51.0806L16.156 51.0171L17.8636 54.5639C16.9749 54.9959 16.5388 56.0387 16.8843 56.9876C17.173 57.781 17.922 58.2734 18.7199 58.2734C18.9416 58.2734 19.1674 58.2353 19.3877 58.1552L19.5621 58.0917L22.3882 63.9609C22.0296 64.6 21.8298 65.3273 21.829 66.0807V69.7441L17.1027 72.8399C15.8659 73.6489 15.1266 75.0132 15.1253 76.4914V82.5246C15.1253 84.9319 17.0839 86.8906 19.4914 86.8906H28.0443L31.4155 92.7299C32.1932 94.0828 33.6396 94.9241 35.1918 94.9255H56.5797C62.5869 94.9255 67.8535 91.6998 70.7427 86.8904H80.5078C82.9154 86.8904 84.874 84.9319 84.874 82.5244V76.4891C84.8726 75.0126 84.1334 73.6483 82.8978 72.8401L78.1703 69.7435V66.078C78.1695 65.3256 77.9695 64.5984 77.6113 63.9599L80.4371 58.0911L80.6116 58.1546C80.8321 58.2347 81.0577 58.2728 81.2794 58.2728C82.077 58.2728 82.8263 57.7802 83.115 56.987C83.4603 56.0381 83.0243 54.9955 82.1356 54.5635L83.8433 51.0167L84.0177 51.0802C84.2383 51.1602 84.4638 51.1983 84.6855 51.1983C85.4832 51.1983 86.2325 50.7057 86.5211 49.9125C86.8665 48.9637 86.4305 47.9211 85.5418 47.489L87.2495 43.9422L87.4239 44.0057C87.6444 44.086 87.87 44.1241 88.0917 44.1241C88.8894 44.1241 89.6386 43.6315 89.9273 42.8383C90.2728 41.8894 89.8365 40.8466 88.9478 40.4147L90.6557 36.8677L90.8301 36.9312C91.0506 37.0113 91.2762 37.0494 91.4979 37.0494C92.2956 37.0494 93.0448 36.5568 93.3335 35.7636C93.679 34.8147 93.2427 33.7719 92.354 33.3401L94.0618 29.7931L95.1541 30.1906C95.3703 30.2691 95.5965 30.3083 95.8221 30.3083C96.1045 30.3083 96.3865 30.2472 96.6475 30.1253C97.117 29.9064 97.4803 29.5099 97.6575 29.0229L99.6616 23.5167C100.679 20.7232 99.3421 17.6809 96.4107 16.119V16.119ZM63.6723 36.3474C63.6723 43.8864 57.5389 50.0198 49.9999 50.0198C42.461 50.0198 36.3276 43.8864 36.3276 36.3474C36.3276 28.8085 42.461 22.6751 49.9999 22.6751C57.5389 22.6751 63.6723 28.8085 63.6723 36.3474ZM16.1046 24.0146C15.7356 23.0009 14.6145 22.4786 13.6012 22.8469L5.34445 25.8521L4.00847 22.1813C3.61685 21.1053 4.43836 20.0927 5.42629 19.5662L15.8864 13.9927C17.0572 13.3691 17.8502 12.9864 19.1908 12.4985C20.5331 12.01 21.3862 11.7936 22.6828 11.519L34.2785 9.06501C35.3732 8.83356 36.6538 9.08103 37.0456 10.1568L38.3817 13.8279L30.1238 16.8334C29.1103 17.2026 28.5875 18.3233 28.9564 19.3369C29.3254 20.3506 30.4457 20.8734 31.4598 20.5043L36.7717 18.5708L37.7407 22.3752L11.3296 31.9881L9.62644 28.4508L14.9372 26.518C15.9509 26.149 16.4734 25.0283 16.1046 24.0146V24.0146ZM34.7431 27.6233C33.8867 29.1153 33.2435 30.7441 32.8536 32.4682L14.736 39.0625L13.0328 35.5253L34.7431 27.6233ZM32.4269 36.7804C32.4601 38.1432 32.6487 39.4678 32.9763 40.7374L18.142 46.1366L16.439 42.5996L32.4269 36.7804ZM34.3707 44.3873C34.9906 45.5878 35.7453 46.7075 36.6139 47.7277L21.5483 53.2111L19.8454 49.6741L34.3707 44.3873ZM39.8644 50.702C40.5871 51.2138 41.3504 51.6718 42.1477 52.0716C41.6059 52.1876 41.0908 52.405 40.6252 52.7197L25.5129 61.4448L23.2517 56.7487L39.8644 50.702ZM56.58 91.0185C49.6296 91.0185 43.9749 85.3638 43.9749 78.4134C43.9749 71.4629 49.6296 65.8082 56.58 65.8082C63.5305 65.8082 69.1852 71.4629 69.1852 78.4134C69.1852 85.3638 63.5305 91.0185 56.58 91.0185ZM40.0685 78.4134C40.0685 78.527 40.0748 78.6393 40.0771 78.7524C39.667 78.8456 39.2466 78.8946 38.8281 78.8946C35.7209 78.8946 33.1931 76.3668 33.1931 73.2597C33.1931 70.1525 35.7209 67.6245 38.8281 67.6245C40.3525 67.6245 41.7805 68.2331 42.8266 69.2902C41.0858 71.9061 40.0685 75.0427 40.0685 78.4134ZM80.7588 76.1086C80.9528 76.2353 80.968 76.4348 80.968 76.4908V82.524C80.968 82.7774 80.7618 82.9836 80.5082 82.9836H72.4431C72.8623 81.5312 73.0916 79.999 73.0916 78.4135C73.0916 69.3091 65.6845 61.902 56.58 61.902C52.2535 61.902 48.3126 63.5769 45.3654 66.3096C43.6179 64.6609 41.2975 63.7185 38.8281 63.7185C33.5669 63.7185 29.2867 67.9987 29.2867 73.26C29.2867 78.5212 33.5669 82.8014 38.8281 82.8014C39.4259 82.8014 40.0256 82.7403 40.6154 82.6274C41.4928 85.9488 43.3823 88.8618 45.9318 91.0189H35.1937C35.0359 91.0187 34.8859 90.9282 34.8006 90.7796L30.8637 83.9604C30.5147 83.3561 29.8699 82.9838 29.1721 82.9838H19.4916C19.2381 82.9838 19.0318 82.7776 19.0318 82.5242V76.493C19.0318 76.435 19.0473 76.2357 19.2422 76.108L24.8526 72.4333C25.4036 72.0723 25.7356 71.458 25.7356 70.7994V66.0826C25.7356 65.9586 25.7977 65.7908 25.9749 65.6889L42.6467 56.0633C42.7001 56.0327 42.752 55.9993 42.802 55.9635C42.8802 55.9081 42.9692 55.8797 43.0671 55.8797H56.9324C57.0301 55.8797 57.1193 55.9081 57.1975 55.9635C57.2477 55.9993 57.2994 56.0327 57.3527 56.0633L74.0281 65.691C74.2018 65.7908 74.2639 65.9586 74.2641 66.0805V70.7994C74.2641 71.458 74.5961 72.0725 75.1471 72.4333L80.7588 76.1086ZM74.4871 61.4448L59.3749 52.7195C58.9094 52.4048 58.3942 52.1874 57.8526 52.0714C58.6498 51.6716 59.413 51.2138 60.1356 50.702L76.7483 56.7485L74.4871 61.4448ZM78.4517 53.2111L63.3861 47.7277C64.2547 46.7075 65.0094 45.5878 65.6294 44.3873L80.1547 49.6741L78.4517 53.2111ZM81.8579 46.1366L67.0238 40.7374C67.3513 39.4678 67.5402 38.143 67.5732 36.7804L83.5611 42.5996L81.8579 46.1366ZM85.2641 39.0625L67.1464 32.4682C66.7566 30.7441 66.1134 29.1151 65.2569 27.6233L86.9672 35.5253L85.2641 39.0625ZM88.6704 31.9883L62.2592 22.375L63.2281 18.5706L90.3736 28.4508L88.6704 31.9883ZM95.9916 22.1815L94.6556 25.8523L61.6183 13.8277L62.9543 10.1566C63.3459 9.08083 64.6264 8.83356 65.7214 9.06481L77.3173 11.5188C78.6136 11.793 79.4668 12.0096 80.8092 12.4983C82.1499 12.9862 82.9429 13.3689 84.1134 13.9923L94.5738 19.5662C95.5617 20.0927 96.3832 21.1055 95.9916 22.1815V22.1815Z" fill="#E67E22"/>
<path d="M50.0003 44.1602C54.3082 44.1602 57.8131 40.6554 57.8131 36.3474C57.8131 32.0395 54.3082 28.5347 50.0003 28.5347C45.6923 28.5347 42.1875 32.0395 42.1875 36.3474C42.1875 40.6554 45.6923 44.1602 50.0003 44.1602V44.1602ZM50.0003 32.4411C52.1543 32.4411 53.9067 34.1935 53.9067 36.3474C53.9067 38.5014 52.1543 40.2538 50.0003 40.2538C47.8463 40.2538 46.0939 38.5014 46.0939 36.3474C46.0939 34.1935 47.8461 32.4411 50.0003 32.4411V32.4411Z" fill="#E67E22"/>
<path d="M59.3338 76.4604H53.8258C52.747 76.4604 51.8726 77.3351 51.8726 78.4136C51.8726 79.4922 52.747 80.3668 53.8258 80.3668H59.3338C60.4125 80.3668 61.287 79.4922 61.287 78.4136C61.287 77.3351 60.4125 76.4604 59.3338 76.4604Z" fill="#E67E22"/>
<path d="M22.5309 23.6289C23.6096 23.6289 24.484 22.7543 24.484 21.6758C24.484 20.5973 23.6096 19.7227 22.5309 19.7227H22.5295C21.4508 19.7227 20.5771 20.5973 20.5771 21.6758C20.5771 22.7543 21.4521 23.6289 22.5309 23.6289Z" fill="#E67E22"/>
</g>
<defs>
<clipPath id="clip0">
<rect width="100" height="100" fill="white"/>
</clipPath>
</defs>
</svg>
