<svg width="50" height="50" viewBox="0 0 50 50" fill="none" xmlns="http://www.w3.org/2000/svg">
<path d="M47.4659 29.6753C47.4659 26.8005 46.0728 24.1901 43.7583 22.5989C46.5858 19.1431 45.5922 13.7159 41.7617 11.4577C42.6437 7.31434 38.772 3.47659 34.6375 4.38926C33.8 -0.262946 27.6941 -1.60503 24.9887 2.26027C22.2815 -1.60699 16.1761 -0.260112 15.3399 4.38926C11.2049 3.47649 7.33382 7.31483 8.21581 11.4576C7.89575 11.6521 7.58967 11.8707 7.30079 12.1114C6.88613 12.4568 6.83004 13.0731 7.1756 13.4878C7.52107 13.9024 8.13733 13.9584 8.55199 13.613C8.87136 13.3468 9.21859 13.1174 9.58653 12.9292H11.875L13.0606 14.9827C11.4418 16.8461 12.7969 19.8286 15.2883 19.8184C16.5624 19.8184 17.6492 19.0015 18.0526 17.8639H24.0116V31.7145H21.0208L19.8351 29.6608C21.6147 27.5764 19.7884 24.3812 17.0716 24.8742L15.6047 22.3335C15.4301 22.0311 15.1075 21.8448 14.7584 21.8448H8.15883C7.77398 21.457 7.44943 21.0178 7.19182 20.5347C6.93793 20.0586 6.34599 19.8782 5.86967 20.1323C5.39345 20.3863 5.21334 20.9783 5.46733 21.4545C5.6835 21.8599 5.93446 22.2424 6.21817 22.5994C0.897407 26.1664 1.44273 34.4868 7.18958 37.3312C7.01836 39.3342 7.67039 41.3523 8.98092 42.8741C9.99689 44.0574 11.3522 44.8952 12.8485 45.2753C14.5321 50.8009 22.0375 51.6996 24.9886 46.8003C27.9418 51.7021 35.4468 50.798 37.1288 45.2753C38.6252 44.8951 39.9805 44.0574 40.9964 42.8741C42.3069 41.3524 42.959 39.3342 42.7877 37.3312C45.6533 35.8683 47.4659 32.9405 47.4659 29.6753ZM41.8182 21.8449H38.151C37.8019 21.8449 37.4793 22.0312 37.3047 22.3335L35.8378 24.8743C34.4233 24.5941 32.981 25.47 32.5376 26.7797H25.9659V23.8464H28.4882C28.8373 23.8464 29.1599 23.6601 29.3345 23.3577L31.0614 20.3666C31.2361 20.0642 31.2361 19.6917 31.0614 19.3893L29.3345 16.3982C29.1599 16.0958 28.8373 15.9095 28.4882 15.9095H25.9659V8.16114H28.48L29.6657 10.2147C27.8862 12.299 29.7125 15.4941 32.4292 15.0013L33.8962 17.5421C34.0707 17.8444 34.3933 18.0307 34.7425 18.0307H43.4382C43.4069 19.4635 42.8242 20.8298 41.8182 21.8449V21.8449ZM36.2793 27.7569C36.2793 28.2958 35.8409 28.7342 35.302 28.7342C34.0055 28.6805 34.0059 26.8331 35.302 26.7797C35.8409 26.7797 36.2793 27.2181 36.2793 27.7569ZM25.9659 17.8641H27.924L29.0866 19.878L27.924 21.8918H25.9659V17.8641ZM31.8935 13.0959C31.3546 13.0959 30.9162 12.6575 30.9162 12.1186C30.9699 10.8222 32.8172 10.8225 32.8707 12.1186C32.8706 12.6575 32.4322 13.0959 31.8935 13.0959ZM29.3668 1.94041C31.242 1.94041 32.7677 3.46603 32.7677 5.34132V5.70565C32.7677 6.0389 32.9376 6.34928 33.2183 6.5289C33.499 6.70853 33.8519 6.73257 34.1546 6.59291C37.3871 5.09544 40.8767 8.26923 39.6942 11.6293C39.5284 12.1035 39.749 12.6261 40.2044 12.838C41.5949 13.485 42.6373 14.6708 43.1281 16.0763H35.3068L34.1212 14.0227C35.9007 11.9383 34.0743 8.74311 31.3576 9.23605L29.8907 6.69533C29.7162 6.39296 29.3936 6.2067 29.0444 6.2067H25.966V5.34142C25.9659 3.46603 27.4915 1.94041 29.3668 1.94041V1.94041ZM10.1141 10.9746C9.54119 7.78841 12.8969 5.21506 15.8228 6.59282C16.1254 6.73266 16.4784 6.70833 16.759 6.5288C17.0398 6.34918 17.2096 6.0388 17.2096 5.70555V5.34122C17.397 0.828374 23.8258 0.831893 24.0115 5.34122V8.86136H22.4991C21.3665 5.80093 16.8654 6.53389 16.803 9.83863C16.8656 13.1439 21.3671 13.8758 22.4991 10.8159H24.0115V15.9094H18.0525C17.6094 14.5998 16.1667 13.7238 14.7524 14.0041L13.2854 11.4632C13.1109 11.1609 12.7883 10.9746 12.4391 10.9746H10.1141ZM20.712 9.83863C20.712 10.3775 20.2736 10.8159 19.7347 10.8159C18.4383 10.7623 18.4387 8.91482 19.7347 8.86136C20.2736 8.86136 20.712 9.29986 20.712 9.83863ZM15.2881 17.8641C14.7493 17.8641 14.3109 17.4257 14.3109 16.8868C14.3645 15.5904 16.2119 15.5908 16.2654 16.8868C16.2654 17.4256 15.827 17.8641 15.2881 17.8641ZM18.5846 27.7569C18.5846 28.2958 18.1462 28.7342 17.6073 28.7342C16.3109 28.6805 16.3112 26.8331 17.6073 26.7797C18.1462 26.7797 18.5846 27.2181 18.5846 27.7569ZM19.2618 48.0676C17.0038 48.0676 15.0451 46.4633 14.6043 44.253C14.5246 43.8532 14.2051 43.5449 13.8028 43.4795C11.0058 43.0323 8.99558 40.554 9.12301 37.721H15.6544L16.8401 39.7746C16.4013 40.2872 16.136 40.9525 16.136 41.6786C16.297 45.5677 21.8391 45.5671 21.9997 41.6786C22.0188 39.8686 20.3053 38.449 18.532 38.7959L17.065 36.2551C16.8905 35.9527 16.5679 35.7665 16.2187 35.7665H8.45075C6.32567 34.8388 4.86689 32.9055 4.53697 30.6526H6.58816C7.72082 33.713 12.2219 32.9801 12.2843 29.6753C12.2216 26.3701 7.72023 25.6381 6.58816 28.698H4.53648C4.84002 26.6129 6.10725 24.8021 8.00452 23.7995H14.1939L15.3795 25.853C13.6001 27.9373 15.4263 31.1323 18.1429 30.6396L19.6099 33.1805C19.7845 33.4829 20.1071 33.6691 20.4562 33.6691H24.0112V43.318C24.0114 45.9369 21.8807 48.0676 19.2618 48.0676V48.0676ZM19.0678 40.7013C19.6067 40.7013 20.0451 41.1397 20.0451 41.6786C19.9915 42.975 18.144 42.9746 18.0906 41.6786C18.0906 41.1397 18.529 40.7013 19.0678 40.7013ZM8.3752 29.6753C8.3752 29.1364 8.81361 28.698 9.35248 28.698C10.6489 28.7517 10.6485 30.5991 9.35248 30.6526C8.81361 30.6526 8.3752 30.2142 8.3752 29.6753ZM30.7155 48.0676C28.0966 48.0676 25.9659 45.9369 25.9659 43.318V36.5997H28.2204C28.7451 38.1872 30.7137 39.0396 32.248 38.2678L35.354 41.3737V44.3426C34.8788 46.5066 32.9428 48.0676 30.7155 48.0676ZM30.9847 36.5997C30.4458 36.5997 30.0074 36.1613 30.0074 35.6223C30.0611 34.326 31.9085 34.3263 31.962 35.6223C31.962 36.1613 31.5237 36.5997 30.9847 36.5997ZM37.3085 43.1717V40.969C37.3085 40.7098 37.2055 40.4613 37.0223 40.2779L33.6301 36.8857C34.5704 34.9889 33.1108 32.6629 30.9846 32.6906C29.7105 32.6906 28.6236 33.5075 28.2203 34.6451H25.9658V28.7343H32.5376C32.941 29.8718 34.0278 30.6887 35.3019 30.6887C37.7937 30.6989 39.1481 27.7154 37.5296 25.8529L38.7152 23.7994H41.9727C44.5957 25.1486 46.0038 28.2102 45.3611 31.0905H38.6259C38.0861 31.0905 37.6486 31.5281 37.6486 32.0678V34.9553C37.6486 35.3044 37.8349 35.6271 38.1373 35.8016L40.8263 37.3541C41.1163 39.881 39.6117 42.3003 37.3085 43.1717ZM41.7815 35.6488L39.6034 34.3912V33.0452H44.6004C43.9508 34.1524 42.9811 35.0648 41.7815 35.6488V35.6488Z" fill="white"/>
<path d="M5.68214 17.6215C6.97879 17.5699 6.97781 15.7182 5.68214 15.667H5.68146C4.38481 15.7188 4.38657 17.5705 5.68214 17.6215Z" fill="white"/>
</svg>
