<svg width="100" height="100" viewBox="0 0 100 100" fill="none" xmlns="http://www.w3.org/2000/svg">
<path d="M66.1276 56.7481C66.1276 65.6413 58.8931 72.8757 50 72.8757C41.1069 72.8757 33.8752 65.6413 33.8752 56.7481C33.8752 47.855 41.1069 40.6205 50 40.6205C58.8931 40.6205 66.1276 47.8578 66.1276 56.7481ZM100 33.8477V79.6541C100 85.7607 95.0489 90.7118 88.9423 90.7118H11.0577C4.95107 90.7118 0 85.7607 0 79.6541V33.8477C0 27.7411 4.95107 22.79 11.0577 22.79H24.6586V18.9641C24.6586 13.6205 28.9877 9.28864 34.3341 9.28864H65.6659C71.0123 9.28864 75.3414 13.6205 75.3414 18.9641V22.7873H88.9423C95.0489 22.79 100 27.7411 100 33.8477ZM74.4209 56.7481C74.4209 43.2827 63.4655 32.3273 50 32.3273C36.5373 32.3273 25.5819 43.2827 25.5819 56.7481C25.5819 70.2136 36.5373 81.169 50 81.169C63.4655 81.169 74.4209 70.2136 74.4209 56.7481Z" fill="white"/>
</svg>
