<svg width="100" height="100" viewBox="0 0 100 100" fill="none" xmlns="http://www.w3.org/2000/svg">
<path d="M73.6616 36.2427H81.1649C81.4757 36.2427 81.7738 36.1192 81.9936 35.8994C82.2134 35.6797 82.3368 35.3816 82.3368 35.0708C82.3368 34.76 82.2134 34.4619 81.9936 34.2422C81.7738 34.0224 81.4757 33.8989 81.1649 33.8989H73.6616C73.3508 33.8989 73.0527 34.0224 72.833 34.2422C72.6132 34.4619 72.4897 34.76 72.4897 35.0708C72.4897 35.3816 72.6132 35.6797 72.833 35.8994C73.0527 36.1192 73.3508 36.2427 73.6616 36.2427V36.2427Z" fill="#E67E22"/>
<path d="M84.5814 36.5275C84.8695 36.5275 85.1511 36.4421 85.3907 36.2821C85.6302 36.122 85.8169 35.8945 85.9272 35.6283C86.0374 35.3622 86.0662 35.0693 86.01 34.7867C85.9538 34.5042 85.8151 34.2446 85.6114 34.0409C85.4077 33.8372 85.1481 33.6985 84.8656 33.6422C84.583 33.586 84.2901 33.6149 84.024 33.7251C83.7578 33.8354 83.5303 34.0221 83.3702 34.2616C83.2102 34.5012 83.1248 34.7828 83.1248 35.0709C83.1252 35.4571 83.2788 35.8274 83.5519 36.1004C83.8249 36.3735 84.1952 36.5271 84.5814 36.5275V36.5275Z" fill="#E67E22"/>
<path d="M22.678 14.7114C22.3672 14.7114 22.0691 14.8349 21.8493 15.0547C21.6296 15.2744 21.5061 15.5725 21.5061 15.8833V18.2788C21.5061 18.5896 21.6296 18.8877 21.8493 19.1075C22.0691 19.3272 22.3672 19.4507 22.678 19.4507C22.9888 19.4507 23.2868 19.3272 23.5066 19.1075C23.7264 18.8877 23.8499 18.5896 23.8499 18.2788V15.8833C23.8499 15.5725 23.7264 15.2744 23.5066 15.0547C23.2868 14.8349 22.9888 14.7114 22.678 14.7114V14.7114Z" fill="#E67E22"/>
<path d="M22.678 21.1301C22.3672 21.1301 22.0691 21.2536 21.8493 21.4734C21.6296 21.6931 21.5061 21.9912 21.5061 22.302V40.0587C21.5061 40.3695 21.6296 40.6675 21.8493 40.8873C22.0691 41.1071 22.3672 41.2305 22.678 41.2305C22.9888 41.2305 23.2869 41.1071 23.5066 40.8873C23.7264 40.6675 23.8499 40.3695 23.8499 40.0587V22.3028C23.85 22.1488 23.8197 21.9964 23.7609 21.8541C23.702 21.7118 23.6157 21.5825 23.5069 21.4736C23.3981 21.3647 23.2688 21.2783 23.1266 21.2194C22.9844 21.1605 22.8319 21.1301 22.678 21.1301V21.1301Z" fill="#E67E22"/>
<path d="M98.4539 42.5285V36.6371C98.4522 35.1942 97.8782 33.8108 96.8579 32.7904C95.8376 31.7701 94.4543 31.1961 93.0113 31.1943H87.4561V6.3998C87.4533 4.96082 86.8799 3.58169 85.8616 2.56498C84.8432 1.54828 83.4632 0.977025 82.0242 0.976562H13.8635C12.4245 0.977025 11.0445 1.54828 10.0261 2.56498C9.00782 3.58169 8.43438 4.96082 8.43164 6.3998V56.2463H2.14844C1.83764 56.2463 1.53957 56.3698 1.3198 56.5895C1.10003 56.8093 0.976563 57.1074 0.976562 57.4182V62.9455C0.979304 64.3845 1.55276 65.7637 2.57112 66.7805C3.58947 67.7972 4.96956 68.3685 6.40859 68.3689H60.0738V93.5809C60.0756 95.0238 60.6496 96.4071 61.6699 97.4274C62.6902 98.4477 64.0735 99.0217 65.5164 99.0234H93.0113C94.4542 99.0217 95.8376 98.4477 96.8579 97.4274C97.8782 96.4071 98.4522 95.0238 98.4539 93.5809V47.3828C98.6274 47.2791 98.7711 47.1321 98.8709 46.9563C98.9707 46.7805 99.0233 46.5819 99.0234 46.3797V43.5324C99.0234 43.3301 98.9709 43.1313 98.871 42.9554C98.7712 42.7794 98.6275 42.6324 98.4539 42.5285V42.5285ZM87.3453 33.5381V35.2135C87.3448 35.6576 87.1681 36.0834 86.8541 36.3974C86.54 36.7115 86.1143 36.8882 85.6701 36.8887H72.8576C72.4135 36.8882 71.9877 36.7115 71.6736 36.3974C71.3596 36.0834 71.1829 35.6576 71.1824 35.2135V33.5381H87.3453ZM60.0738 66.0248H6.40859C5.59095 66.025 4.80662 65.7009 4.22765 65.1235C3.64869 64.5462 3.32238 63.7628 3.32031 62.9451V58.5896H38.252V59.9688C38.2535 60.8436 38.602 61.6821 39.221 62.3003C39.84 62.9185 40.6789 63.2659 41.5537 63.2664H54.334C55.2089 63.2662 56.048 62.9189 56.6672 62.3007C57.2863 61.6826 57.635 60.8441 57.6367 59.9691V58.59H60.0746L60.0738 66.0248ZM40.5957 59.9691V58.59H55.293V59.9691C55.2921 60.2226 55.1908 60.4654 55.0111 60.6443C54.8315 60.8231 54.5882 60.9234 54.3348 60.923H41.5537C41.3003 60.9233 41.0571 60.823 40.8775 60.6442C40.6979 60.4654 40.5965 60.2226 40.5957 59.9691V59.9691ZM60.0738 36.6371V43.7465C59.8463 43.8277 59.6494 43.9772 59.5101 44.1746C59.3708 44.372 59.2959 44.6076 59.2957 44.8492V47.6963C59.296 47.9379 59.3708 48.1734 59.5101 48.3708C59.6494 48.5682 59.8463 48.7177 60.0738 48.7988V49.8688H28.1469C27.8361 49.8688 27.538 49.9922 27.3182 50.212C27.0985 50.4318 26.975 50.7298 26.975 51.0406C26.975 51.3514 27.0985 51.6495 27.3182 51.8693C27.538 52.089 27.8361 52.2125 28.1469 52.2125H59.2957V54.8145C59.296 55.056 59.3708 55.2916 59.5101 55.489C59.6494 55.6863 59.8463 55.8358 60.0738 55.917V56.2463H10.7754V6.3998C10.7775 5.58222 11.1037 4.79884 11.6827 4.22152C12.2616 3.64421 13.0459 3.3201 13.8635 3.32031H82.0242C82.8418 3.3201 83.6261 3.64421 84.205 4.22152C84.7839 4.79884 85.1102 5.58222 85.1123 6.3998V31.1943H81.066V8.52559C81.066 8.21479 80.9425 7.91671 80.7228 7.69695C80.503 7.47718 80.2049 7.35371 79.8941 7.35371H15.9936C15.6828 7.35371 15.3847 7.47718 15.1649 7.69695C14.9451 7.91671 14.8217 8.21479 14.8217 8.52559V51.0408C14.8217 51.3516 14.9451 51.6497 15.1649 51.8695C15.3847 52.0892 15.6828 52.2127 15.9936 52.2127H20.3344C20.6452 52.2127 20.9432 52.0892 21.163 51.8695C21.3828 51.6497 21.5062 51.3516 21.5062 51.0408C21.5062 50.73 21.3828 50.4319 21.163 50.2122C20.9432 49.9924 20.6452 49.8689 20.3344 49.8689H17.1654V9.69746H78.7223V31.1943H65.5164C64.0735 31.1961 62.6901 31.7701 61.6698 32.7904C60.6495 33.8108 60.0755 35.1942 60.0738 36.6371V36.6371ZM96.1102 93.5809C96.1093 94.4025 95.7825 95.1901 95.2016 95.7711C94.6206 96.352 93.8329 96.6788 93.0113 96.6797H65.5164C64.6948 96.6788 63.9071 96.352 63.3262 95.7711C62.7452 95.1901 62.4185 94.4025 62.4176 93.5809V36.6371C62.4185 35.8155 62.7452 35.0278 63.3262 34.4468C63.9071 33.8658 64.6948 33.539 65.5164 33.5381H68.8387V35.2135C68.8399 36.279 69.2637 37.3005 70.0171 38.054C70.7705 38.8074 71.7921 39.2312 72.8576 39.2324H85.6701C86.7356 39.2312 87.7572 38.8074 88.5106 38.054C89.2641 37.3005 89.6879 36.279 89.6891 35.2135V33.5381H93.0113C93.8329 33.539 94.6206 33.8658 95.2016 34.4468C95.7825 35.0278 96.1093 35.8155 96.1102 36.6371V93.5809Z" fill="#E67E22"/>
</svg>
