<svg width="100" height="100" viewBox="0 0 100 100" fill="none" xmlns="http://www.w3.org/2000/svg">
<g clip-path="url(#clip0)">
<path d="M98.5299 39.7377H93.6414C93.4906 39.7377 93.3454 39.7607 93.2085 39.8028C92.6858 38.8423 92.0599 37.9306 91.334 37.0856C88.3598 33.6225 84.0361 31.6365 79.471 31.6365H20.1323C15.5674 31.6365 11.2434 33.6225 8.26924 37.0856C7.55906 37.9126 6.94474 38.8037 6.42882 39.7414C6.4053 39.7403 6.38236 39.7379 6.35845 39.7379H1.47014C0.658034 39.7379 0 40.3961 0 41.2081C0 42.02 0.658034 42.6782 1.47014 42.6782H5.18488C4.50098 44.9026 4.31397 47.2772 4.67426 49.6353L5.32269 53.881C5.44539 54.6839 6.19595 55.2353 6.99806 55.1124C7.80075 54.9897 8.35176 54.2397 8.22925 53.4372L7.58062 49.1913C7.02099 45.5273 8.08478 41.8132 10.4997 39.0015C12.9145 36.1896 16.4254 34.5769 20.1321 34.5769H31.5249C34.4391 34.5769 37.2472 35.8023 39.2292 37.9391C40.7605 39.5897 41.672 41.6095 41.9503 43.701C41.9513 43.8 41.9625 43.8988 41.9832 43.9962C42.2541 46.5933 41.5555 49.2787 39.8566 51.489L33.3845 59.9096C29.7331 64.6605 23.4567 66.5916 17.7655 64.715C14.6485 63.6869 11.9707 61.5891 10.2251 58.8076C9.79367 58.1197 8.88571 57.9125 8.19847 58.3436C7.51064 58.7752 7.30306 59.6826 7.73469 60.3702C9.84326 63.7306 13.0785 66.2653 16.8448 67.5072C18.5971 68.0851 20.3949 68.3642 22.1752 68.3642C27.3793 68.3642 32.4283 65.9785 35.7155 61.7016L42.1877 53.2808C44.2325 50.6203 45.145 47.4214 44.958 44.2851C47.7587 42.0227 51.9224 42.1732 54.5408 44.7381C54.5674 44.7642 54.5957 44.7879 54.6237 44.8117C54.5637 47.7776 55.4842 50.769 57.4148 53.281L60.2704 56.9963C60.7649 57.6399 61.688 57.761 62.3319 57.2659C62.9756 56.7711 63.0964 55.8481 62.6016 55.2044L59.7464 51.4888C56.6111 47.4095 56.8752 41.7108 60.3739 37.9387C62.3558 35.8021 65.1642 34.5766 68.0784 34.5766H79.4712C83.1777 34.5766 86.6886 36.1894 89.1035 39.0011C91.5183 41.813 92.5823 45.5269 92.0226 49.1909L91.3738 53.4367C90.5668 58.7195 86.9126 63.0408 81.8375 64.7146C76.1475 66.5914 69.8706 64.6603 66.2188 59.9094C65.7244 59.2657 64.8014 59.1447 64.1572 59.6397C63.5135 60.1344 63.3928 61.0575 63.8875 61.7012C67.1749 65.9785 72.223 68.3642 77.4279 68.3638C79.2075 68.3638 81.0064 68.0847 82.7582 67.5069C88.8901 65.4847 93.3052 60.2634 94.2802 53.8806L94.929 49.6349C95.2893 47.2768 95.1025 44.9022 94.4184 42.6778H98.5299C99.342 42.6778 100 42.0196 100 41.2077C100 40.3959 99.342 39.7377 98.5299 39.7377V39.7377ZM58.2181 35.9391C56.7205 37.5537 55.6885 39.4447 55.1249 41.4411C53.4703 40.3342 51.5258 39.7377 49.4947 39.7377C47.6721 39.7377 45.9195 40.2176 44.3833 41.1155C43.8019 39.2392 42.8012 37.4659 41.3852 35.9393C40.9275 35.4457 40.4343 34.9917 39.9131 34.5766H59.6902C59.169 34.9915 58.6758 35.4457 58.2181 35.9391V35.9391Z" fill="#E67E22"/>
<path d="M20.6296 44.3163L17.3947 47.5514C16.8206 48.1255 16.8206 49.0564 17.3947 49.6303C17.6819 49.9175 18.0582 50.061 18.4344 50.061C18.8106 50.061 19.1869 49.9175 19.4741 49.6303L22.709 46.3954C23.2831 45.8213 23.2831 44.8904 22.7088 44.3163C22.1348 43.7421 21.2039 43.7423 20.6296 44.3163V44.3163Z" fill="#E67E22"/>
<path d="M18.179 59.1741C18.4661 59.4613 18.8423 59.6048 19.2186 59.6048C19.5948 59.6048 19.9712 59.4613 20.2583 59.1741L34.2458 45.1866C34.82 44.6125 34.82 43.6816 34.2458 43.1077C33.6715 42.5335 32.7408 42.5333 32.1666 43.1077L18.1792 57.0952C17.605 57.6691 17.605 58.6 18.179 59.1741V59.1741Z" fill="#E67E22"/>
<path d="M83.9175 50.0609C84.2936 50.0609 84.67 49.9175 84.9572 49.6303C85.5313 49.0561 85.5313 48.1255 84.9572 47.5513L81.7223 44.3164C81.1481 43.7423 80.2172 43.7421 79.6433 44.3164C79.069 44.8906 79.069 45.8213 79.6431 46.3956L82.878 49.6305C83.1652 49.9175 83.5411 50.0609 83.9175 50.0609V50.0609Z" fill="#E67E22"/>
<path d="M68.1063 43.1074C67.5321 43.6815 67.5321 44.6124 68.1063 45.1863L82.0937 59.1738C82.3809 59.4608 82.7571 59.6045 83.1334 59.6045C83.5096 59.6045 83.8859 59.461 84.1731 59.1738C84.7472 58.5997 84.7472 57.6688 84.1731 57.0948L70.1856 43.1074C69.6113 42.5332 68.6806 42.5332 68.1063 43.1074V43.1074Z" fill="#E67E22"/>
</g>
<defs>
<clipPath id="clip0">
<rect width="100" height="100" fill="white"/>
</clipPath>
</defs>
</svg>
