<svg width="100" height="100" viewBox="0 0 100 100" fill="none" xmlns="http://www.w3.org/2000/svg">
<g clip-path="url(#clip0)">
<path d="M61.6665 66.6669H56.6666V51.667C56.6611 47.0671 52.9332 43.3392 48.3333 43.3337H15.0002C10.4002 43.3392 6.67229 47.0671 6.66687 51.667V66.6669H1.6669C0.746489 66.6669 0.000244141 67.4132 0.000244141 68.3336V91.6668C0.000244141 92.5872 0.746489 93.3334 1.6669 93.3334H3.33356V98.3334C3.33356 99.2538 4.0798 100 5.00021 100H11.6668C12.5872 100 13.3335 99.2538 13.3335 98.3334V93.3334H49.9999V98.3334C49.9999 99.2538 50.7462 100 51.6666 100H58.3332C59.2536 100 59.9999 99.2538 59.9999 98.3334V93.3334H61.6665C62.5869 93.3334 63.3332 92.5872 63.3332 91.6668V68.3336C63.3332 67.4132 62.5871 66.6669 61.6665 66.6669ZM10.0002 96.6667H6.66687V93.3334H10.0002V96.6667ZM13.3335 90.0001H3.33356V70.0002H13.3335V90.0001ZM46.6666 90.0001H16.6668V80.0002H46.6666V90.0001ZM48.3333 66.6669C47.4129 66.6669 46.6666 67.4132 46.6666 68.3336V76.6669H16.6668V68.3336C16.6668 67.4132 15.9206 66.6669 15.0002 66.6669H10.0002V51.667C10.0002 48.9056 12.2387 46.6671 15.0002 46.6671H48.3333C51.0947 46.6671 53.3332 48.9056 53.3332 51.667V66.6669H48.3333ZM56.6666 96.6667H53.3332V93.3334H56.6666V96.6667ZM59.9999 90.0001H49.9999V70.0002H59.9999V90.0001Z" fill="#E67E22"/>
<path d="M99.9229 27.8339L91.5897 1.16739C91.3713 0.473021 90.7276 0.000732422 89.9997 0.000732422H76.6664C75.9385 0.000732422 75.2948 0.473021 75.0764 1.16739L66.7431 27.8339C66.4669 28.712 66.955 29.6476 67.8331 29.9239C67.995 29.9747 68.1636 30.0008 68.3331 30.0005H81.6664V90.0002H69.9998C69.0794 90.0002 68.3331 90.7464 68.3331 91.6668V98.3335C68.3331 99.2539 69.0794 100 69.9998 100H96.6663C97.5867 100 98.333 99.2539 98.333 98.3335V91.6668C98.333 90.7464 97.5867 90.0002 96.6663 90.0002H84.9997V30.0005H98.333C99.2534 30.0005 99.9996 29.2545 99.9996 28.3339C99.9998 28.1643 99.974 27.9958 99.9229 27.8339ZM94.9996 93.3335V96.6668H71.6664V93.3335H94.9996ZM70.5998 26.6672L77.8914 3.33404H88.7747L96.0663 26.6672H70.5998Z" fill="#E67E22"/>
<path d="M54.9999 6.66725H40.5866L32.7083 0.365623C32.0994 -0.121874 31.234 -0.121874 30.625 0.365623L22.7467 6.66725H8.3335V36.6671H54.9999V6.66725ZM31.6667 3.8006L35.2483 6.66725H28.0817L31.6667 3.8006ZM51.6666 33.3338H11.6668V10.0006H51.6666V33.3338Z" fill="#E67E22"/>
<path d="M49.9999 11.6672H13.3335V31.6671H49.9999V11.6672ZM46.6666 28.3338H16.6668V15.0005H46.6666V28.3338Z" fill="#E67E22"/>
</g>
<defs>
<clipPath id="clip0">
<rect width="100" height="100" fill="white"/>
</clipPath>
</defs>
</svg>
