<svg width="100" height="100" viewBox="0 0 100 100" fill="none" xmlns="http://www.w3.org/2000/svg">
<g clip-path="url(#clip0)">
<path d="M79.9666 15.5151L83.1364 14.4832L86.3916 24.484L83.2218 25.5151L79.9666 15.5151Z" fill="#E67E22"/>
<path d="M75.0814 27.1833L78.2511 26.1514L81.5071 36.1506L78.3374 37.1833L75.0814 27.1833Z" fill="#E67E22"/>
<path d="M18.8802 32.0451C18.5287 34.5915 19.2717 37.168 20.9269 39.135L23.3333 42.1534V70H26.6667V44.782L29.0747 46.3868C29.6354 46.7603 30.3646 46.7603 30.9253 46.3868L35 43.667L39.0747 46.3835C39.6354 46.757 40.3646 46.757 40.9253 46.3835L45 43.667L49.0747 46.3835C49.6354 46.757 50.3646 46.757 50.9253 46.3835L55 43.667L59.0747 46.3835C59.6354 46.757 60.3646 46.757 60.9253 46.3835L65 43.667L68.3333 45.8887V96.6667H31.6667V100H78.3333C82.9338 99.9944 86.661 96.2671 86.6667 91.6667V41.6667C86.6626 41.3005 86.5365 40.9457 86.3086 40.6584L95.9399 15.0171C97.2363 11.5723 96.7619 7.71164 94.6704 4.68348C92.6831 1.74565 89.3644 -0.0105319 85.8187 4.7528e-05C81.2988 0.0423652 77.273 2.86626 75.695 7.1021L73.0819 14.0585L70 10.9766V5.00005C70 4.07964 69.2538 3.33338 68.3333 3.33338H50C49.0796 3.33338 48.3333 4.07964 48.3333 5.00005V7.85975C46.4494 6.15239 43.6076 6.05555 41.6113 7.63188V5.00005C41.6113 2.27218 39.4002 0.0602688 36.6716 0.0602688C33.9437 0.0602688 31.7318 2.27218 31.7318 5.00005V7.63351C30.8195 6.87749 29.6712 6.46408 28.4863 6.46652C27.111 6.46326 25.7927 7.01828 24.8332 8.00542C22.8565 10.0424 22.8442 13.278 24.8047 15.3305L26.3566 16.932C25.7918 17.1908 25.2791 17.5505 24.8438 17.9932L24.8332 17.9997L24.8169 18.0168C24.4287 18.4156 24.1073 18.8746 23.8664 19.3767L21.967 15.8684L19.0348 17.4553L23.3447 25.4102C23.1519 25.5201 22.9582 25.6267 22.7751 25.752C22.7067 25.7984 22.6465 25.8521 22.5798 25.8985L16.1304 19.9553L13.8705 22.4065L20.2767 28.313C19.541 29.4385 19.0641 30.7129 18.8802 32.0451ZM54.0747 40.28L50 42.9997L45.9253 40.2833C45.3646 39.9097 44.6354 39.9097 44.0747 40.2833L40.0383 42.9753C40.0285 42.8085 40 42.6636 40 42.5033C39.9894 38.8404 42.6335 35.7081 46.2459 35.1042C49.8592 34.4996 53.3781 36.6008 54.5597 40.0684C54.388 40.1132 54.2245 40.184 54.0747 40.28ZM58.3333 41.8864L58.3016 41.8653C58.1014 38.3619 56.2142 35.1734 53.2389 33.3122C50.2645 31.4511 46.5715 31.1483 43.3333 32.5V21.6667H58.3333V41.8864ZM83.3333 91.6667C83.3333 94.4279 81.0946 96.6667 78.3333 96.6667H71.6667V45.892L75 43.667L79.0747 46.3835C79.6354 46.757 80.3646 46.757 80.9253 46.3835L83.3333 44.782V91.6667ZM78.8151 8.27316C79.9015 5.33533 82.6864 3.37163 85.8187 3.33338C88.2682 3.3285 90.5591 4.54351 91.9303 6.57313C93.4017 8.70448 93.7337 11.4218 92.8198 13.8453L82.5 41.3331L80 42.9997L75.9253 40.2833C75.3646 39.9097 74.6354 39.9097 74.0747 40.2833L70 42.9997L66.6187 40.7455L78.8151 8.27316ZM71.7953 17.4854L62.95 41.0303L61.6667 41.8864V20.6902L68.3333 14.0235L71.7953 17.4854ZM51.6667 6.66671H66.6667V10H51.6667V6.66671ZM50.6901 13.3334H64.3099L59.3099 18.3334H45.6901L50.6901 13.3334ZM27.2119 10.3435C27.5464 9.99842 28.0062 9.80311 28.4863 9.80311C28.9673 9.80392 29.4271 9.99842 29.7616 10.3435L32.2087 12.8435C32.6839 13.3285 33.4058 13.4758 34.0332 13.2178C34.6607 12.959 35.0692 12.3454 35.0651 11.6667V5.00005C35.0383 4.40841 35.3386 3.85015 35.8464 3.5466C36.355 3.24224 36.9889 3.24224 37.4968 3.5466C38.0054 3.85015 38.3057 4.40841 38.278 5.00005V11.6667C38.2788 12.343 38.6882 12.9517 39.3148 13.2072C39.9406 13.4636 40.6592 13.3155 41.1336 12.8337L43.5881 10.3337C44.2912 9.64116 45.4191 9.64116 46.1214 10.3337C46.8457 11.0751 46.8457 12.2583 46.1214 12.9997L41.2118 17.9997L41.2614 18.0502L40.4883 18.8233C40.354 18.9616 40.2458 19.1228 40.1668 19.2986C40.1432 19.3498 40.1302 19.4019 40.1115 19.4548C40.0619 19.5972 40.0317 19.7453 40.022 19.8951C40.022 19.9317 40.0016 19.9618 40.0016 19.9984V34.6998C39.6224 35.0627 39.27 35.4525 38.9486 35.8667L35.8 29.1667C34.6379 26.8547 32.5374 25.1539 30.0334 24.5004C29.4507 24.3498 28.8534 24.2587 28.252 24.2302L27.8247 23.7297C27.4919 23.348 27.2404 23.0502 27.1997 23.0087C26.7692 22.5578 26.5829 21.9263 26.7 21.3135C26.7619 20.9652 26.9222 20.643 27.1615 20.3833L27.1916 20.3549L27.2331 20.3101C27.8369 19.7185 28.772 19.6314 29.4751 20.1001C30.1823 20.573 31.1312 20.4371 31.6781 19.786C32.2249 19.1342 32.1932 18.1763 31.6048 17.5619L27.1997 13.0152C26.4844 12.2665 26.4901 11.0857 27.2119 10.3435ZM22.1834 32.5C22.4007 30.8847 23.2951 29.4377 24.6436 28.5214C25.9806 27.6172 27.6416 27.3308 29.2049 27.7352C30.7674 28.1405 32.0809 29.1976 32.8101 30.6381L37.0581 39.6867C36.9531 40.0765 36.8701 40.4721 36.8099 40.8716L35.9318 40.2849C35.3719 39.9113 34.6419 39.9113 34.082 40.2849L30 42.9997L26.3037 40.5331L25.9465 40.0855L30.2433 36.7636L28.2031 34.1268L23.8705 37.4781L23.5002 37.0167C22.4398 35.7667 21.9613 34.1244 22.1834 32.5Z" fill="#E67E22"/>
<path d="M6.89213 95.8429C8.15841 98.3975 10.7675 100.01 13.6182 99.9998C14.786 99.9982 15.9367 99.7264 16.9816 99.2064L18.3334 98.5301L19.6867 99.2064C20.7308 99.7264 21.8816 99.9982 23.0485 99.9998C25.9001 100.01 28.5083 98.3975 29.7754 95.8429L30.3565 94.6768C32.308 90.7607 33.3269 86.4468 33.3334 82.0718C33.3277 77.2476 29.419 73.3389 24.5948 73.3332C22.9688 73.3381 21.3762 73.7995 20 74.6662V73.3332C20 69.6515 17.015 66.6665 13.3334 66.6665V69.9998C15.1742 69.9998 16.6667 71.4924 16.6667 73.3332V74.6662C15.2906 73.7995 13.698 73.3381 12.072 73.3332C7.24776 73.3389 3.33907 77.2476 3.33337 82.0718C3.33907 86.4476 4.35795 90.7632 6.31026 94.68L6.89213 95.8429ZM12.072 76.6665C13.5059 76.6624 14.882 77.2329 15.8936 78.2502L17.155 79.5116C17.806 80.1618 18.8607 80.1618 19.5118 79.5116L20.7732 78.2502C22.3194 76.7039 24.6436 76.2417 26.6635 77.0783C28.6833 77.9149 30 79.8859 30 82.0718C29.996 85.9308 29.0975 89.7362 27.3747 93.1899L26.7937 94.3569C26.0865 95.777 24.6346 96.6722 23.0485 96.6665C22.3991 96.6657 21.7587 96.5143 21.1768 96.2246L19.0788 95.1748C18.6093 94.9404 18.0575 94.9404 17.5887 95.1748L15.4916 96.2246C14.9097 96.5143 14.2684 96.6657 13.6182 96.6665C12.0313 96.6714 10.5787 95.7738 9.87309 94.3512L9.29203 93.1851C7.57003 89.7329 6.67159 85.9292 6.66671 82.0718C6.67078 79.0884 9.08858 76.6706 12.072 76.6665V76.6665Z" fill="#E67E22"/>
</g>
<defs>
<clipPath id="clip0">
<rect width="100" height="100" fill="white"/>
</clipPath>
</defs>
</svg>
