<svg width="100" height="100" viewBox="0 0 100 100" fill="none" xmlns="http://www.w3.org/2000/svg">
<path d="M63.7128 97.0711H48.3536C46.4586 97.0711 44.9166 95.5293 44.9166 93.634V82.5055H59.6414C60.4503 82.5055 61.1058 81.8498 61.1058 81.041C61.1058 80.2322 60.4503 79.5765 59.6414 79.5765H43.4252C42.6703 79.5765 42.0461 78.9862 42.0049 78.2384L38.8813 17.5113C38.869 17.276 38.8004 17.047 38.6809 16.8439L34.0075 8.90104H79.7444L75.6718 15.8227C75.2616 16.5198 75.4943 17.4174 76.1912 17.8275C76.8887 18.2377 77.786 18.0052 78.1962 17.3079L83.5675 8.17916C83.7001 7.95402 83.7698 7.69764 83.7698 7.43657V2.52182C83.7698 1.13116 82.6384 0 81.2478 0H32.5042C31.1135 0 29.9822 1.13116 29.9822 2.52182V7.43638C29.9822 7.69744 30.0519 7.95382 30.1845 8.17896L35.9746 18.0198L39.08 78.3946C39.1798 80.1967 40.3703 81.6891 41.9877 82.2565V93.6339C41.9877 97.1441 44.8434 99.9998 48.3536 99.9998H63.7128C64.5218 99.9998 65.1773 99.3441 65.1773 98.5353C65.1773 97.7266 64.5216 97.0711 63.7128 97.0711V97.0711ZM80.8408 2.92894V5.97191H32.9111V2.92894H80.8408Z" fill="#E67E22"/>
<path d="M87.9738 21.977C87.3677 21.3299 86.5113 20.9587 85.6244 20.9587H63.5158C62.6289 20.9587 61.7725 21.3299 61.1662 21.9772C60.5599 22.6245 60.2451 23.5034 60.3029 24.3887L63.0423 66.2917C63.0952 67.0987 63.7901 67.7112 64.5993 67.6575C65.4063 67.6048 66.0179 66.9077 65.9652 66.1007L63.6958 31.3869H85.4446L82.2844 79.7238C82.1774 81.3615 80.8078 82.6443 79.1667 82.6443H69.9733C68.3321 82.6443 66.9626 81.3615 66.8555 79.7238L66.3729 72.3417C66.3199 71.5345 65.6174 70.9219 64.8158 70.9758C64.0086 71.0285 63.3972 71.7256 63.45 72.5327L63.9327 79.9147C64.0848 82.2421 65.5537 84.1982 67.5804 85.0761V95.5291C67.5804 97.9943 69.5859 99.9998 72.0511 99.9998H77.0889C79.5541 99.9998 81.5596 97.9943 81.5596 95.5291V85.0761C83.5862 84.198 85.055 82.2421 85.2073 79.9147L88.8374 24.3881C88.895 23.503 88.5803 22.6241 87.9738 21.977V21.977ZM78.6307 95.5291C78.6307 96.3793 77.939 97.0709 77.0889 97.0709H72.0511C71.2009 97.0709 70.5093 96.3793 70.5093 95.5291V85.5733H78.6307V95.5291ZM63.5043 28.4578L63.2258 24.1974C63.219 24.0933 63.2643 24.0214 63.3037 23.9795C63.343 23.9375 63.4117 23.8875 63.5158 23.8875H85.6244C85.7285 23.8875 85.7972 23.9375 85.8366 23.9795C85.8759 24.0214 85.9216 24.0933 85.9146 24.1974L85.6359 28.4578H63.5043Z" fill="#E67E22"/>
<path d="M32.9111 67.0715V55.4598C32.9111 53.8625 31.6118 52.5633 30.0148 52.5633H29.8861V50.0967C29.8861 49.2879 29.2306 48.6322 28.4216 48.6322C27.6127 48.6322 26.9572 49.2879 26.9572 50.0967V52.5633H19.132V42.8931C22.4486 41.3995 25.1172 38.791 26.6979 35.5688C26.8691 36.7997 26.957 38.0467 26.957 39.3067V43.8557C26.957 44.6645 27.6125 45.3202 28.4214 45.3202C29.2304 45.3202 29.8859 44.6645 29.8859 43.8557V39.3067C29.8859 35.0418 28.9965 30.9079 27.2426 27.0194C26.7666 25.9644 25.7981 25.2388 24.6513 25.0789C23.5045 24.9182 22.3745 25.3511 21.6279 26.2354L19.4981 28.7572C17.3733 31.273 16.2031 34.4718 16.2031 37.7645V52.5635H16.0746C14.4773 52.5635 13.1781 53.8627 13.1781 55.46V67.0717C12.0006 67.5003 11.1561 68.6275 11.1561 69.9514V75.245C11.1561 75.2461 11.1559 75.2475 11.1559 75.2487C11.1559 75.2498 11.1561 75.2512 11.1561 75.2524V80.988C11.1561 81.7968 11.8116 82.4525 12.6206 82.4525C13.4296 82.4525 14.0851 81.7968 14.0851 80.988V76.7129H32.0045V93.0884C32.0045 95.2842 30.218 97.0706 28.0221 97.0706H18.0671C15.8713 97.0706 14.0849 95.2842 14.0849 93.0884V87.229C14.0849 86.4202 13.4294 85.7645 12.6204 85.7645C11.8114 85.7645 11.1559 86.4202 11.1559 87.229V93.0884C11.1559 96.8992 14.2563 99.9996 18.0671 99.9996H28.0219C31.8329 99.9996 34.9332 96.8992 34.9332 93.0884V69.9514C34.9332 68.6275 34.0885 67.5001 32.9111 67.0715V67.0715ZM21.7356 30.647L23.8654 28.1252C23.9962 27.9705 24.1604 27.9672 24.2463 27.9795C24.3324 27.9916 24.4894 28.0393 24.5728 28.2238C24.8657 28.873 25.1315 29.5301 25.3707 30.1938L24.9885 31.7485C24.1727 35.0685 22.0364 37.8897 19.1318 39.5965V37.7641C19.132 35.1626 20.0568 32.6348 21.7356 30.647ZM16.107 55.4922H29.9822V66.8842H16.107V55.4922ZM14.0851 73.7842V69.9514C14.0851 69.8752 14.1468 69.8133 14.2229 69.8133H14.6425H31.4466H31.8663C31.9424 69.8133 32.0043 69.8752 32.0043 69.9514V73.7842H14.0851Z" fill="#E67E22"/>
</svg>
