<svg width="198" height="63" viewBox="0 0 198 63" fill="none" xmlns="http://www.w3.org/2000/svg">
<path d="M27.7865 25.0001C27.2318 28.6282 26.3686 31.6587 24.8082 34.7253L54.9437 37.2021L54.993 32.708L27.7865 25.0001Z" fill="#985D0B"/>
<path d="M24.1785 36.3004C22.0045 40.01 19.9035 42.5868 16.5711 44.8852L54.8495 41.8038L54.9142 37.4272L24.1785 36.3004Z" fill="#985D0B"/>
<path d="M27.4272 11.6339C27.8296 13.751 28.1903 17.4031 28.1903 19.6592C28.1903 20.9218 28.1208 22.1617 27.9917 23.3841L54.9798 32.5346L55.0853 27.4933L27.4272 11.6339Z" fill="#985D0B"/>
<path fill-rule="evenodd" clip-rule="evenodd" d="M22.6871 36.4162L0.79541 37.718L0.84009 42.374L15.0347 45.0518C18.2197 42.6182 20.685 40.2426 22.6871 36.4162V36.4162Z" fill="#FF6600"/>
<path fill-rule="evenodd" clip-rule="evenodd" d="M26.6478 25.2247L0.874847 32.5745L0.901312 37.3519L23.6819 34.783C25.0963 31.8684 26.1136 28.6484 26.6478 25.2247H26.6478Z" fill="#FF6600"/>
<path fill-rule="evenodd" clip-rule="evenodd" d="M26.575 11.5214L0.883118 27.6257L0.931138 32.0853L26.8365 23.521C26.9491 22.2037 27.0781 19.7249 27.0781 18.3666C27.0781 16.0224 26.9035 13.7344 26.575 11.5214V11.5214Z" fill="#FF6600"/>
<path fill-rule="evenodd" clip-rule="evenodd" d="M21.484 0.716492L0.89774 21.7536L0.894684 27.2318L25.8434 9.67178C24.8868 6.43168 23.1753 3.36323 21.4839 0.716492H21.484Z" fill="#FF6600"/>
<path d="M12.4546 62.7953L12.4913 54.4973L54.8802 46.4553L54.9522 50.2546L12.4546 62.7953Z" fill="#985D0B"/>
<path d="M0.783722 51.9313L11.4798 62.8072L11.535 54.4104L0.79494 47.4559L0.783722 51.9313V51.9313Z" fill="#FF6600"/>
<path d="M12.4199 53.6346L12.4497 46.0336L54.8255 42.1774L54.8179 46.2931L12.4199 53.6346Z" fill="#985D0B"/>
<path d="M0.804705 47.2684L11.5734 53.3915L11.6109 46.0271L0.766602 42.7707L0.804702 47.2684H0.804705Z" fill="#FF6600"/>
<path d="M22.5701 0C23.6606 1.84806 24.7219 3.56498 25.41 5.65972C25.8003 6.84781 26.5171 8.28499 26.683 9.5074L54.9798 27.3086L54.9701 21.6982L22.5701 0Z" fill="#985D0B"/>
<path d="M62.0629 46.9619V25.4434H64.4652V27.4648C65.0316 26.6738 65.6713 26.083 66.3842 25.6924C67.097 25.292 67.9613 25.0918 68.9769 25.0918C70.3051 25.0918 71.4769 25.4336 72.4926 26.1172C73.5082 26.8008 74.2748 27.7676 74.7924 29.0176C75.3099 30.2578 75.5687 31.6201 75.5687 33.1045C75.5687 34.6963 75.2806 36.1318 74.7045 37.4111C74.1381 38.6807 73.308 39.6572 72.2142 40.3408C71.1302 41.0146 69.9877 41.3516 68.7865 41.3516C67.9076 41.3516 67.1166 41.166 66.4135 40.7949C65.7201 40.4238 65.1488 39.9551 64.6996 39.3887V46.9619H62.0629ZM64.4506 33.3096C64.4506 35.3115 64.8558 36.791 65.6664 37.748C66.4769 38.7051 67.4584 39.1836 68.6107 39.1836C69.7826 39.1836 70.7836 38.6904 71.6136 37.7041C72.4535 36.708 72.8734 35.1699 72.8734 33.0898C72.8734 31.1074 72.4633 29.623 71.6429 28.6367C70.8324 27.6504 69.8607 27.1572 68.7279 27.1572C67.6049 27.1572 66.6088 27.6846 65.7396 28.7393C64.8802 29.7842 64.4506 31.3076 64.4506 33.3096ZM89.4115 35.9902L92.1361 36.3271C91.7064 37.9189 90.9105 39.1543 89.7484 40.0332C88.5863 40.9121 87.1019 41.3516 85.2953 41.3516C83.0199 41.3516 81.2133 40.6533 79.8754 39.2568C78.5472 37.8506 77.8832 35.8828 77.8832 33.3535C77.8832 30.7363 78.557 28.7051 79.9047 27.2598C81.2523 25.8145 83.0004 25.0918 85.1488 25.0918C87.2289 25.0918 88.9281 25.7998 90.2465 27.2158C91.5648 28.6318 92.224 30.624 92.224 33.1924C92.224 33.3486 92.2191 33.583 92.2094 33.8955H80.6078C80.7054 35.6045 81.1888 36.9131 82.058 37.8213C82.9271 38.7295 84.0111 39.1836 85.3099 39.1836C86.2767 39.1836 87.1019 38.9297 87.7855 38.4219C88.4691 37.9141 89.0111 37.1035 89.4115 35.9902ZM80.7543 31.7275H89.4408C89.3236 30.4189 88.9916 29.4375 88.4447 28.7832C87.6049 27.7676 86.516 27.2598 85.1781 27.2598C83.9672 27.2598 82.9467 27.665 82.1166 28.4756C81.2963 29.2861 80.8422 30.3701 80.7543 31.7275ZM95.432 41V25.4434H97.8051V27.8018C98.4105 26.6982 98.9672 25.9707 99.475 25.6191C99.9926 25.2676 100.559 25.0918 101.174 25.0918C102.063 25.0918 102.966 25.375 103.884 25.9414L102.976 28.3877C102.331 28.0068 101.687 27.8164 101.042 27.8164C100.466 27.8164 99.9486 27.9922 99.4896 28.3438C99.0306 28.6855 98.7035 29.1641 98.5082 29.7793C98.2152 30.7168 98.0687 31.7422 98.0687 32.8555V41H95.432ZM104.397 36.3564L107.004 35.9463C107.151 36.9912 107.556 37.792 108.22 38.3486C108.894 38.9053 109.831 39.1836 111.033 39.1836C112.244 39.1836 113.142 38.9395 113.728 38.4512C114.314 37.9531 114.607 37.3721 114.607 36.708C114.607 36.1123 114.348 35.6436 113.83 35.3018C113.469 35.0674 112.571 34.7695 111.135 34.4082C109.202 33.9199 107.859 33.5 107.107 33.1484C106.365 32.7871 105.798 32.2939 105.408 31.6689C105.027 31.0342 104.836 30.3359 104.836 29.5742C104.836 28.8809 104.993 28.2412 105.305 27.6553C105.627 27.0596 106.062 26.5664 106.609 26.1758C107.019 25.873 107.576 25.6191 108.279 25.4141C108.992 25.1992 109.753 25.0918 110.564 25.0918C111.785 25.0918 112.854 25.2676 113.772 25.6191C114.7 25.9707 115.383 26.4492 115.823 27.0547C116.262 27.6504 116.565 28.4512 116.731 29.457L114.153 29.8086C114.036 29.0078 113.694 28.3828 113.127 27.9336C112.571 27.4844 111.78 27.2598 110.754 27.2598C109.543 27.2598 108.679 27.46 108.161 27.8604C107.644 28.2607 107.385 28.7295 107.385 29.2666C107.385 29.6084 107.493 29.916 107.707 30.1895C107.922 30.4727 108.259 30.707 108.718 30.8926C108.982 30.9902 109.758 31.2148 111.047 31.5664C112.912 32.0645 114.211 32.4746 114.944 32.7969C115.686 33.1094 116.267 33.5684 116.687 34.1738C117.107 34.7793 117.317 35.5312 117.317 36.4297C117.317 37.3086 117.058 38.1387 116.54 38.9199C116.033 39.6914 115.295 40.292 114.328 40.7217C113.362 41.1416 112.268 41.3516 111.047 41.3516C109.026 41.3516 107.483 40.9316 106.418 40.0918C105.364 39.252 104.69 38.0068 104.397 36.3564ZM120.452 46.9619V25.4434H122.854V27.4648C123.42 26.6738 124.06 26.083 124.773 25.6924C125.486 25.292 126.35 25.0918 127.366 25.0918C128.694 25.0918 129.866 25.4336 130.881 26.1172C131.897 26.8008 132.663 27.7676 133.181 29.0176C133.699 30.2578 133.957 31.6201 133.957 33.1045C133.957 34.6963 133.669 36.1318 133.093 37.4111C132.527 38.6807 131.697 39.6572 130.603 40.3408C129.519 41.0146 128.376 41.3516 127.175 41.3516C126.296 41.3516 125.505 41.166 124.802 40.7949C124.109 40.4238 123.537 39.9551 123.088 39.3887V46.9619H120.452ZM122.839 33.3096C122.839 35.3115 123.245 36.791 124.055 37.748C124.866 38.7051 125.847 39.1836 126.999 39.1836C128.171 39.1836 129.172 38.6904 130.002 37.7041C130.842 36.708 131.262 35.1699 131.262 33.0898C131.262 31.1074 130.852 29.623 130.032 28.6367C129.221 27.6504 128.249 27.1572 127.117 27.1572C125.994 27.1572 124.997 27.6846 124.128 28.7393C123.269 29.7842 122.839 31.3076 122.839 33.3096ZM147.8 35.9902L150.525 36.3271C150.095 37.9189 149.299 39.1543 148.137 40.0332C146.975 40.9121 145.491 41.3516 143.684 41.3516C141.409 41.3516 139.602 40.6533 138.264 39.2568C136.936 37.8506 136.272 35.8828 136.272 33.3535C136.272 30.7363 136.946 28.7051 138.293 27.2598C139.641 25.8145 141.389 25.0918 143.537 25.0918C145.618 25.0918 147.317 25.7998 148.635 27.2158C149.953 28.6318 150.613 30.624 150.613 33.1924C150.613 33.3486 150.608 33.583 150.598 33.8955H138.996C139.094 35.6045 139.578 36.9131 140.447 37.8213C141.316 38.7295 142.4 39.1836 143.699 39.1836C144.665 39.1836 145.491 38.9297 146.174 38.4219C146.858 37.9141 147.4 37.1035 147.8 35.9902ZM139.143 31.7275H147.829C147.712 30.4189 147.38 29.4375 146.833 28.7832C145.994 27.7676 144.905 27.2598 143.567 27.2598C142.356 27.2598 141.335 27.665 140.505 28.4756C139.685 29.2861 139.231 30.3701 139.143 31.7275ZM164.001 35.3018L166.594 35.6387C166.311 37.4258 165.583 38.8271 164.411 39.8428C163.249 40.8486 161.819 41.3516 160.12 41.3516C157.991 41.3516 156.277 40.6582 154.978 39.2715C153.689 37.875 153.044 35.8779 153.044 33.2803C153.044 31.6006 153.323 30.1309 153.879 28.8711C154.436 27.6113 155.281 26.6689 156.413 26.0439C157.556 25.4092 158.796 25.0918 160.134 25.0918C161.824 25.0918 163.205 25.5215 164.28 26.3809C165.354 27.2305 166.042 28.4414 166.345 30.0137L163.782 30.4092C163.537 29.3643 163.103 28.5781 162.478 28.0508C161.863 27.5234 161.116 27.2598 160.237 27.2598C158.909 27.2598 157.829 27.7383 156.999 28.6953C156.169 29.6426 155.754 31.1465 155.754 33.207C155.754 35.2969 156.155 36.8154 156.955 37.7627C157.756 38.71 158.801 39.1836 160.09 39.1836C161.125 39.1836 161.99 38.8662 162.683 38.2314C163.376 37.5967 163.816 36.6201 164.001 35.3018ZM174.607 38.6416L174.988 40.9707C174.245 41.127 173.581 41.2051 172.995 41.2051C172.038 41.2051 171.296 41.0537 170.769 40.751C170.242 40.4482 169.87 40.0527 169.656 39.5645C169.441 39.0664 169.333 38.0264 169.333 36.4443V27.4941H167.4V25.4434H169.333V21.5908L171.955 20.0088V25.4434H174.607V27.4941H171.955V36.5908C171.955 37.3428 171.999 37.8262 172.087 38.041C172.185 38.2559 172.336 38.4268 172.541 38.5537C172.756 38.6807 173.059 38.7441 173.45 38.7441C173.743 38.7441 174.128 38.71 174.607 38.6416ZM177.214 22.5576V19.5254H179.851V22.5576H177.214ZM177.214 41V25.4434H179.851V41H177.214ZM188.201 41L182.283 25.4434H185.066L188.406 34.7598C188.767 35.7656 189.099 36.8105 189.402 37.8945C189.636 37.0742 189.963 36.0879 190.383 34.9355L193.84 25.4434H196.55L190.661 41H188.201Z" fill="#FF6600"/>
</svg>
