<svg width="300" height="63" viewBox="0 0 300 63" fill="none" xmlns="http://www.w3.org/2000/svg">
<path d="M90.5994 19.2507C86.809 19.2507 84.9139 20.5031 84.9139 23.0079C84.8972 23.5211 85.0193 24.0292 85.2671 24.4788C85.5149 24.9284 85.8794 25.3029 86.3221 25.5629C87.2619 26.153 89.4612 27.0046 92.9198 28.1178C96.3785 29.2309 98.8047 30.4914 100.198 31.8991C101.59 33.3068 102.286 35.472 102.286 38.3946C102.286 42.1158 101.156 44.9322 98.8954 46.8439C96.635 48.7556 93.6793 49.712 90.0283 49.713C87.316 49.713 83.9946 49.2957 80.064 48.4611L78.1854 48.0959L78.9158 42.5141C83.5758 43.1423 87.1407 43.4559 89.6104 43.4549C93.2966 43.4549 95.1396 41.9239 95.1396 38.862C95.1396 37.7514 94.7158 36.8797 93.8607 36.2545C93.0055 35.6293 91.3147 34.95 88.7763 34.2196C84.7415 33.0714 81.8981 31.7067 80.2459 30.1257C78.5937 28.5446 77.7671 26.3444 77.7661 23.5249C77.7661 19.9781 78.8442 17.335 81.0003 15.5956C83.1565 13.8563 86.1122 12.9871 89.8674 12.9881C92.4404 12.9881 95.7097 13.3358 99.6754 14.0311L101.552 14.3963L100.981 20.0878C96.0809 19.5297 92.6203 19.2507 90.5994 19.2507Z" fill="white"/>
<path d="M114.438 49.0862H107.448V12.5657H114.438V33.3268L117.1 32.8579L122.264 23.0079H130.09L123.307 35.3707L130.452 49.0862H122.577L117.309 38.9131L114.438 39.3805V49.0862Z" fill="white"/>
<path d="M140.862 42.4885C141.68 43.2009 142.853 43.5575 144.382 43.5585C147.616 43.5585 150.503 43.4544 153.042 43.246L154.506 43.0957L154.608 48.2596C150.609 49.2335 146.992 49.7204 143.757 49.7204C139.827 49.7204 136.975 48.6774 135.201 46.5914C133.427 44.5054 132.54 41.1143 132.541 36.4183C132.541 27.0632 136.384 22.3857 144.07 22.3857C151.651 22.3857 155.442 26.3153 155.442 34.1744L154.923 39.0273H139.583C139.619 40.6174 140.043 41.7761 140.862 42.4885ZM148.556 33.6965C148.556 31.6105 148.226 30.1577 147.565 29.3381C146.905 28.5185 145.749 28.1117 144.097 28.1177C142.443 28.1177 141.279 28.5436 140.602 29.3952C139.926 30.2469 139.569 31.6806 139.531 33.6965H148.556Z" fill="white"/>
<path d="M174.9 28.9504H168.484V39.6435C168.484 40.6955 168.511 41.4274 168.561 41.8618C168.611 42.2924 168.815 42.6904 169.135 42.983C169.466 43.2956 169.977 43.4519 170.672 43.4519L174.637 43.3482L174.95 48.9269C172.62 49.4519 170.847 49.713 169.629 49.7099C166.498 49.7099 164.359 49.0051 163.212 47.5954C162.065 46.1856 161.491 43.5856 161.491 39.7953V28.9444H158.416V23.0079H161.491V15.7519H168.475V23.0079H174.893V28.9549L174.9 28.9504Z" fill="white"/>
<path d="M189.194 22.3767C191.006 22.3767 193.319 22.6552 196.135 23.2123L197.541 23.5249L197.331 29.0541C194.584 28.7755 192.549 28.6363 191.228 28.6363C188.823 28.6363 187.232 29.1498 186.454 30.1767C185.677 31.2037 185.286 33.1425 185.281 35.993C185.281 38.8435 185.672 40.7972 186.454 41.8543C187.237 42.9113 188.845 43.4423 191.279 43.4474L197.331 43.0295L197.54 48.6098C193.819 49.3412 190.984 49.7064 189.036 49.7054C185.176 49.7054 182.402 48.6188 180.715 46.4456C179.028 44.2724 178.183 40.7857 178.182 35.9854C178.182 31.1852 179.052 27.7165 180.791 25.5794C182.531 23.4422 185.332 22.3747 189.194 22.3767Z" fill="white"/>
<path d="M209.695 49.0862H202.705V12.5657H209.695V24.2553C212.1 23.0039 214.254 22.3777 216.158 22.3767C219.635 22.3767 222.036 23.4027 223.358 25.4546C224.681 27.5066 225.341 30.6712 225.34 34.9484V49.0862H218.349V35.1092C218.349 32.918 218.089 31.2924 217.569 30.2323C217.049 29.1723 216.006 28.6413 214.44 28.6393C213.059 28.6428 211.687 28.854 210.369 29.266L209.692 29.4749V49.0892L209.695 49.0862Z" fill="white"/>
<path d="M239.795 28.9504V49.0892H232.799V28.9504H229.989V23.0079H232.799V21.8627C232.799 18.1064 233.356 15.5154 234.469 14.0897C235.582 12.6639 237.566 11.951 240.419 11.951C241.67 11.951 243.288 12.1249 245.27 12.4726L246.363 12.6229L246.258 18.3083C244.728 18.2392 243.441 18.2046 242.398 18.2046C241.355 18.2046 240.66 18.4832 240.314 19.0402C239.964 19.5978 239.792 20.5537 239.792 21.9093V23.0079H246.104V28.9549H239.792L239.795 28.9504Z" fill="white"/>
<path d="M270.157 31.1416V41.9911C270.226 42.8282 270.366 43.4098 270.575 43.7404C270.784 44.0711 271.218 44.307 271.878 44.4438L271.67 49.7129C269.895 49.7129 268.477 49.5917 267.417 49.3492C266.267 49.0642 265.179 48.5684 264.21 47.8869C261.829 49.075 259.206 49.6997 256.545 49.7129C251.151 49.7129 248.455 46.8609 248.458 41.1569C248.458 38.3766 249.205 36.4033 250.699 35.237C252.193 34.0708 254.488 33.3834 257.585 33.175L263.167 32.7587V31.1416C263.167 30.0625 262.923 29.3231 262.437 28.9233C261.95 28.522 261.165 28.3222 260.089 28.3222L250.283 28.74L250.074 23.8886C253.795 22.8797 257.333 22.3752 260.689 22.3752C264.044 22.3752 266.461 23.071 267.939 24.4627C269.421 25.8544 270.16 28.0807 270.157 31.1416ZM258.419 38.0264C256.472 38.2007 255.498 39.2442 255.498 41.1569C255.498 43.0696 256.349 44.026 258.053 44.026C259.517 44.0057 260.972 43.7956 262.382 43.4008L263.165 43.1919V37.6101L258.419 38.0264Z" fill="white"/>
<path d="M289.459 22.3767C293.111 22.3767 295.78 23.3786 297.468 25.3825C299.155 27.3863 299.999 30.9602 300 36.1042C300 41.2491 299.026 44.806 297.078 46.7748C295.131 48.7436 291.774 49.7265 287.009 49.7235C285.506 49.7235 282.775 49.5496 278.815 49.202L276.833 48.9931V12.5703H283.824V23.7849C286.05 22.8471 287.928 22.3777 289.459 22.3767ZM287.01 43.4549C289.34 43.4549 290.905 42.8893 291.706 41.7581C292.506 40.6269 292.907 38.6005 292.908 35.6789C292.908 30.9838 291.448 28.6373 288.527 28.6393C287.188 28.6326 285.854 28.808 284.562 29.1608L283.832 29.3111V43.2399C285.425 43.3832 286.483 43.4549 287.007 43.4549H287.01Z" fill="white"/>
<path d="M31.0514 2.14166C15.044 2.14166 2.07248 15.1177 2.07248 31.1236C2.07248 47.1295 15.044 60.1055 31.0514 60.1055C47.0588 60.1055 60.0333 47.1295 60.0333 31.1236C60.0333 15.1177 47.0588 2.14166 31.0514 2.14166Z" fill="white"/>
<path d="M31.0514 -3.05176e-05C13.9018 -3.05176e-05 0 13.9033 0 31.0544C0 48.2055 13.9018 62.1089 31.0514 62.1089C48.201 62.1089 62.1029 48.204 62.1029 31.0544C62.1029 13.9048 48.204 -3.05176e-05 31.0514 -3.05176e-05ZM28.3462 49.5341L14.9599 41.8047V26.2151L28.3462 33.4455V49.5341ZM30.7388 29.7709L14.8998 21.3802L30.7388 12.2336L46.5794 21.3802L30.7388 29.7709ZM46.5899 41.8347L33.2532 49.5356V33.5086L46.5899 26.2947V41.8347Z" fill="#1CAAD9"/>
</svg>
