<svg width="50" height="50" viewBox="0 0 50 50" fill="none" xmlns="http://www.w3.org/2000/svg">
<g clip-path="url(#clip0)">
<path d="M31.9597 22.3643H0.819479C0.366925 22.3643 0 22.7308 0 23.1837V40.3928C0 40.8453 0.366925 41.2123 0.819479 41.2123H31.9597C32.4122 41.2123 32.7792 40.8453 32.7792 40.3928V23.1837C32.7792 22.7308 32.4122 22.3643 31.9597 22.3643ZM31.1402 39.5733H1.63896V24.0032H31.1402V39.5733Z" fill="white"/>
<path d="M6.55587 31.3781C8.36609 31.3781 9.83379 29.9104 9.83379 28.1002C9.83379 26.2896 8.36609 24.8223 6.55587 24.8223C4.74565 24.8223 3.27795 26.2896 3.27795 28.1002C3.27795 29.9104 4.74565 31.3781 6.55587 31.3781ZM6.55587 26.4612C7.46098 26.4612 8.19483 27.1947 8.19483 28.1002C8.19483 29.0053 7.46098 29.7391 6.55587 29.7391C5.65076 29.7391 4.91691 29.0053 4.91691 28.1002C4.91691 27.1947 5.65076 26.4612 6.55587 26.4612Z" fill="white"/>
<path d="M6.55587 38.7536C8.36609 38.7536 9.83379 37.2859 9.83379 35.4757C9.83379 33.6651 8.36609 32.1978 6.55587 32.1978C4.74565 32.1978 3.27795 33.6651 3.27795 35.4757C3.27795 37.2859 4.74565 38.7536 6.55587 38.7536ZM6.55587 33.8367C7.46098 33.8367 8.19483 34.5702 8.19483 35.4757C8.19483 36.3808 7.46098 37.1146 6.55587 37.1146C5.65076 37.1146 4.91691 36.3808 4.91691 35.4757C4.91691 34.5702 5.65076 33.8367 6.55587 33.8367Z" fill="white"/>
<path d="M16.3897 31.3781C18.2 31.3781 19.6677 29.9104 19.6677 28.1002C19.6677 26.2896 18.2 24.8223 16.3897 24.8223C14.5795 24.8223 13.1118 26.2896 13.1118 28.1002C13.1118 29.9104 14.5795 31.3781 16.3897 31.3781ZM16.3897 26.4612C17.2948 26.4612 18.0287 27.1947 18.0287 28.1002C18.0287 29.0053 17.2948 29.7391 16.3897 29.7391C15.4846 29.7391 14.7508 29.0053 14.7508 28.1002C14.7508 27.1947 15.4846 26.4612 16.3897 26.4612Z" fill="white"/>
<path d="M16.3897 38.7536C18.2 38.7536 19.6677 37.2859 19.6677 35.4757C19.6677 33.6651 18.2 32.1978 16.3897 32.1978C14.5795 32.1978 13.1118 33.6651 13.1118 35.4757C13.1118 37.2859 14.5795 38.7536 16.3897 38.7536ZM16.3897 33.8367C17.2948 33.8367 18.0287 34.5702 18.0287 35.4757C18.0287 36.3808 17.2948 37.1146 16.3897 37.1146C15.4846 37.1146 14.7508 36.3808 14.7508 35.4757C14.7508 34.5702 15.4846 33.8367 16.3897 33.8367Z" fill="white"/>
<path d="M26.2232 31.3781C28.0334 31.3781 29.5011 29.9104 29.5011 28.1002C29.5011 26.2896 28.0334 24.8223 26.2232 24.8223C24.413 24.8223 22.9453 26.2896 22.9453 28.1002C22.9453 29.9104 24.413 31.3781 26.2232 31.3781ZM26.2232 26.4612C27.1283 26.4612 27.8622 27.1947 27.8622 28.1002C27.8622 29.0053 27.1283 29.7391 26.2232 29.7391C25.3181 29.7391 24.5843 29.0053 24.5843 28.1002C24.5843 27.1947 25.3181 26.4612 26.2232 26.4612Z" fill="white"/>
<path d="M26.2232 38.7536C28.0334 38.7536 29.5011 37.2859 29.5011 35.4757C29.5011 33.6651 28.0334 32.1978 26.2232 32.1978C24.413 32.1978 22.9453 33.6651 22.9453 35.4757C22.9453 37.2859 24.413 38.7536 26.2232 38.7536ZM26.2232 33.8367C27.1283 33.8367 27.8622 34.5702 27.8622 35.4757C27.8622 36.3808 27.1283 37.1146 26.2232 37.1146C25.3181 37.1146 24.5843 36.3808 24.5843 35.4757C24.5843 34.5702 25.3181 33.8367 26.2232 33.8367Z" fill="white"/>
<path d="M49.9112 33.031L47.694 28.6427C47.4895 28.239 46.9966 28.0769 46.5924 28.2814L45.1295 29.0188L43.6546 26.0934L45.1175 25.356C45.5213 25.1515 45.6833 24.6585 45.4788 24.2544L43.2613 19.8661C43.0568 19.4624 42.5639 19.3003 42.1597 19.5048L40.6972 20.2422L39.2219 17.3168L40.6848 16.5794C41.0893 16.3753 41.2514 15.8819 41.0469 15.4778L38.8294 11.0895C38.6253 10.6854 38.1319 10.5237 37.7282 10.7282L36.2653 11.4656L35.1565 9.2713C34.9525 8.86716 34.4591 8.70551 34.0554 8.90958L28.2042 11.8666C27.8 12.0703 27.6376 12.5636 27.842 12.9678L41.888 40.7604C42.0917 41.165 42.5851 41.327 42.9892 41.1225L48.8404 38.1651C49.2445 37.9611 49.407 37.4681 49.2025 37.064L48.0873 34.8716L49.549 34.1342C49.7439 34.0361 49.8911 33.8649 49.9592 33.658C50.0272 33.4507 50.01 33.2255 49.9112 33.031V33.031ZM42.1649 21.337L43.6398 24.2628L42.9088 24.6321L41.4339 21.7067L42.1649 21.337ZM37.7298 12.5604L39.2047 15.4862L38.4733 15.8555L36.998 12.9301L37.7298 12.5604ZM42.9744 39.2911L29.6655 12.9614L34.0538 10.7438L47.3659 37.0736L42.9744 39.2911ZM45.869 30.4833L46.6008 30.1136L48.0757 33.0394L47.3439 33.4087L45.869 30.4833Z" fill="white"/>
</g>
<defs>
<clipPath id="clip0">
<rect width="50" height="50" fill="white"/>
</clipPath>
</defs>
</svg>
