<svg width="50" height="50" viewBox="0 0 50 50" fill="none" xmlns="http://www.w3.org/2000/svg">
<path d="M49.4811 12.0264C49.1592 11.8356 48.7611 11.8282 48.4325 12.0074L36.9604 18.2714V14.5129C36.9571 11.589 34.5877 9.21962 31.6638 9.21631H5.29661C2.37272 9.21962 0.00331038 11.589 0 14.5129V35.4263C0.00331038 38.3501 2.37272 40.7196 5.29661 40.7229H31.6638C34.5877 40.7196 36.9571 38.3501 36.9604 35.4263V31.736L48.4329 38.0001C48.7611 38.1792 49.1596 38.1722 49.4811 37.9815C49.803 37.7903 50 37.4439 50 37.0703V12.9372C50 12.5631 49.8026 12.2172 49.4811 12.0264V12.0264ZM34.8409 35.4267C34.8393 37.1812 33.4175 38.6026 31.663 38.6046H5.29661C3.54211 38.6026 2.12071 37.1812 2.11864 35.4267V14.5129C2.12071 12.7588 3.54211 11.337 5.29661 11.335H31.6638C33.4179 11.337 34.8397 12.7588 34.8418 14.5129L34.8409 35.4267ZM47.8814 35.2851L36.9604 29.3223V20.6851L47.8814 14.7227V35.2851Z" fill="white"/>
</svg>
