<svg width="50" height="50" viewBox="0 0 50 50" fill="none" xmlns="http://www.w3.org/2000/svg">
<g clip-path="url(#clip0)">
<path d="M23.5413 0C17.5223 0.342714 11.8306 2.85197 7.51758 7.0643C3.20454 11.2766 0.561525 16.9074 0.0767173 22.9167C-0.0251248 24.3037 -0.0251248 25.6963 0.0767173 27.0833C0.563027 33.1017 3.21405 38.7398 7.53871 42.9534C11.8634 47.167 17.5686 49.6704 23.5975 50H26.4017C32.5452 49.6287 38.338 47.0124 42.6786 42.6489C47.0191 38.2853 49.6046 32.4787 49.9434 26.3333C50.016 25.1539 50.016 23.9711 49.9434 22.7917C49.4001 16.803 46.7251 11.2084 42.405 7.02556C38.0849 2.84275 32.4069 0.349706 26.4038 0L23.5413 0ZM31.2496 13.5625L37.4788 17.1875C37.4788 17.1875 24.8455 23.9375 24.8038 23.9375C24.7621 23.9375 12.108 17.2292 12.083 17.2083L18.3205 13.5208L24.5538 9.85417L31.2496 13.5625ZM17.758 24.2417L22.9163 27.0833V39.4167L17.6517 36.5L12.5267 33.5208V21.5208L17.758 24.2417ZM37.4684 27.5167V33.6083L32.2913 36.6125L27.083 39.6187V27.0687L32.2684 24.2667L37.4767 21.4437L37.4684 27.5167Z" fill="white"/>
</g>
<defs>
<clipPath id="clip0">
<rect width="50" height="50" fill="white"/>
</clipPath>
</defs>
</svg>
